<?xml version="1.0" standalone="no"?>
<!DOCTYPE svg PUBLIC "-//W3C//DTD SVG 20010904//EN"
 "http://www.w3.org/TR/2001/REC-SVG-20010904/DTD/svg10.dtd">
<svg version="1.0" xmlns="http://www.w3.org/2000/svg"
 width="920.000000pt" height="691.000000pt" viewBox="0 0 920.000000 691.000000"
 preserveAspectRatio="xMidYMid meet">

<g transform="translate(0.000000,691.000000) scale(0.100000,-0.100000)"
fill="#000000" stroke="none">
<path d="M3727 6900 c-78 -14 -217 -94 -217 -125 0 -8 -9 -31 -19 -52 -11 -21
-23 -56 -27 -78 -4 -22 -14 -50 -22 -62 -17 -26 -18 -77 -3 -115 14 -38 21
-35 14 7 -5 34 8 48 22 25 3 -5 14 -10 23 -9 12 0 11 3 -5 9 -32 13 -29 26 8
34 44 8 61 8 55 -3 -6 -10 31 -26 81 -36 18 -4 36 -11 39 -17 9 -14 -96 -1
-111 13 -21 21 -35 9 -35 -31 0 -27 6 -45 22 -59 11 -11 24 -19 27 -17 3 2 14
-12 24 -31 17 -33 17 -34 0 -31 -10 2 -17 9 -16 14 1 6 -10 10 -25 10 -15 -1
-26 4 -25 10 1 6 -4 11 -10 11 -20 0 25 -83 55 -101 42 -26 43 -19 2 19 -20
19 -35 37 -32 40 10 10 79 -29 74 -42 -3 -7 -1 -15 4 -18 33 -20 -29 -29 -63
-9 -6 4 -4 -2 7 -14 10 -11 19 -32 20 -46 0 -14 7 -26 14 -26 20 0 14 -14 -21
-48 -32 -31 -67 -42 -67 -22 0 5 16 27 35 49 39 42 42 51 20 51 -8 0 -30 14
-48 30 -19 17 -39 30 -45 30 -6 0 -8 -27 -5 -72 5 -67 4 -71 -11 -59 -12 10
-14 17 -6 25 5 5 10 15 10 20 -1 6 -9 0 -20 -13 -16 -18 -19 -32 -14 -62 4
-22 3 -39 -2 -38 -5 1 -22 1 -39 -1 -26 -1 -27 -3 -10 -10 18 -8 17 -9 -7 -9
-15 -1 -30 4 -33 9 -4 6 -16 8 -28 4 -48 -14 -145 -65 -167 -89 -18 -20 -33
-25 -69 -25 -55 0 -124 -18 -116 -30 3 -5 0 -12 -6 -16 -8 -4 -9 -3 -5 4 23
37 -52 -6 -117 -67 -43 -40 -111 -165 -103 -188 3 -8 1 -11 -4 -8 -9 5 -14
-22 -13 -62 1 -7 -3 -11 -7 -8 -11 7 -20 -19 -12 -32 4 -5 15 -12 25 -16 9 -3
17 -11 17 -16 0 -6 -6 -8 -14 -5 -7 3 -16 -2 -20 -12 -5 -12 -2 -15 9 -10 9 3
13 2 10 -4 -3 -6 -15 -10 -25 -10 -28 0 -104 -126 -102 -167 2 -18 -2 -33 -7
-33 -6 0 -8 -7 -4 -15 7 -19 -27 -195 -38 -195 -4 0 -5 -10 -2 -22 3 -17 2
-19 -5 -9 -16 22 -24 -4 -10 -34 6 -14 17 -24 23 -21 9 3 8 -8 -3 -37 -23 -67
-30 -105 -20 -115 13 -13 -2 -42 -22 -42 -21 0 -25 -4 -34 -43 -4 -19 -3 -26
4 -22 5 3 10 -3 10 -14 0 -11 -4 -23 -10 -26 -6 -3 -10 -15 -10 -27 0 -18 -2
-19 -17 -7 -13 11 -13 8 2 -13 22 -31 38 -37 28 -11 -4 10 -2 14 4 10 6 -4 11
-25 11 -48 1 -23 3 -43 6 -46 3 -3 1 -14 -4 -24 -8 -14 -5 -19 12 -25 30 -9
48 -35 42 -57 -7 -22 23 -48 45 -39 9 3 12 1 8 -5 -4 -6 0 -18 8 -26 24 -24
18 -33 -7 -11 -13 11 -39 28 -58 38 l-35 19 20 -23 c28 -32 133 -80 176 -80
19 0 69 -12 110 -26 53 -19 92 -27 139 -26 68 1 213 34 236 53 11 9 14 7 14
-8 0 -10 7 -29 16 -41 8 -12 12 -22 8 -22 -4 0 2 -10 14 -22 11 -13 22 -27 23
-33 4 -22 13 -40 23 -47 6 -4 7 -10 3 -14 -12 -12 -31 13 -71 90 -22 42 -41
74 -44 72 -2 -3 14 -41 36 -85 31 -61 36 -78 22 -69 -25 16 -40 0 -16 -17 11
-8 15 -19 10 -27 -4 -7 -4 -10 1 -6 8 8 40 -20 40 -36 0 -5 11 -13 25 -17 16
-5 19 -7 7 -8 -13 -1 -16 -7 -11 -25 3 -13 1 -27 -5 -30 -7 -4 -8 -1 -5 8 9
23 -13 20 -26 -3 -16 -30 -12 -43 10 -36 18 6 19 4 11 -18 -5 -13 -12 -51 -15
-83 -14 -137 -16 -144 -40 -138 -14 3 -28 -1 -35 -10 -24 -29 -31 -17 -31 51
0 92 -8 76 -11 -22 -1 -44 -8 -102 -15 -130 -30 -124 -22 -167 10 -53 9 31 25
78 36 104 37 86 31 38 -11 -92 -53 -164 -54 -169 -25 -109 14 28 25 44 25 36
1 -11 5 -10 16 5 9 10 0 -12 -19 -51 -39 -77 -77 -191 -68 -200 4 -3 0 -10 -8
-15 -11 -7 -12 -10 -2 -10 7 0 10 -5 6 -12 -4 -6 -8 -21 -10 -32 -1 -12 -7
-50 -13 -85 -6 -35 -10 -66 -9 -70 0 -3 0 -42 -2 -86 -1 -55 -4 -74 -10 -60
-17 38 -5 243 16 299 5 12 4 17 -3 13 -6 -4 -13 -21 -17 -39 -24 -116 -47
-258 -55 -348 -6 -58 -16 -121 -24 -140 -8 -19 -12 -41 -10 -47 3 -7 0 -13 -6
-13 -7 0 -11 -21 -11 -51 0 -33 4 -48 11 -44 6 4 8 23 5 46 -3 25 -1 39 5 39
7 0 9 -9 6 -21 -5 -20 -4 -19 22 5 l28 27 1 -41 c2 -43 0 -45 -27 -31 -15 9
-17 5 -16 -27 1 -20 -1 -41 -4 -47 -3 -5 -4 -26 -2 -47 4 -52 -4 -61 -39 -43
-29 15 -34 13 -55 -25 -7 -12 -6 -13 7 -2 8 6 28 10 44 7 50 -9 123 -11 118
-4 -3 5 47 29 62 29 2 0 -8 -12 -21 -26 -14 -15 -26 -36 -27 -48 -3 -53 -18
-95 -37 -106 -12 -6 -24 -1 -50 23 l-34 32 22 -33 c12 -17 30 -36 40 -42 46
-24 53 -140 9 -140 -21 0 -67 41 -87 78 -6 12 -11 36 -11 54 0 23 -3 29 -9 19
-5 -8 -5 -27 0 -44 5 -17 6 -33 4 -36 -3 -2 -5 1 -5 8 0 7 -5 9 -11 6 -7 -5
-3 -14 10 -26 27 -25 27 -43 1 -27 -25 16 -33 37 -20 53 6 7 8 25 4 39 -3 14
-3 34 2 43 9 23 14 73 5 73 -7 -1 -61 -88 -61 -99 0 -12 -50 -100 -61 -106 -5
-4 -9 -2 -9 4 0 5 4 12 9 15 5 3 14 21 20 38 l11 33 -26 -32 c-14 -18 -32 -33
-40 -33 -8 0 -12 -5 -9 -10 3 -6 -1 -10 -9 -10 -9 0 -16 -5 -16 -11 0 -5 6 -7
13 -3 6 4 2 -3 -10 -15 -24 -23 -39 -28 -27 -9 5 7 3 8 -6 3 -11 -7 -11 -10 2
-19 14 -8 10 -19 -33 -82 -27 -40 -49 -78 -49 -84 0 -5 -5 -10 -11 -10 -6 0
-8 -7 -5 -16 5 -12 2 -15 -10 -10 -12 4 -15 2 -10 -9 3 -8 1 -16 -4 -16 -6 -1
-16 -2 -22 -3 -7 0 -13 -5 -13 -11 -1 -5 -7 -21 -14 -33 -7 -14 -10 -36 -7
-50 5 -19 4 -23 -3 -13 -7 11 -10 8 -14 -15 -2 -16 -3 -7 -1 19 4 55 26 97
104 194 31 37 61 80 68 95 11 26 10 28 -13 28 -14 0 -25 -4 -25 -8 0 -10 -76
-145 -106 -187 -40 -58 -52 -106 -54 -225 -3 -151 -7 -228 -15 -240 -3 -6 -1
-10 6 -10 7 0 8 -4 2 -12 -5 -7 -9 -37 -9 -65 1 -29 -2 -53 -6 -53 -5 0 -8 -5
-8 -11 0 -5 4 -7 10 -4 5 3 10 1 10 -4 0 -6 -4 -11 -10 -11 -5 0 -10 -9 -10
-20 0 -20 1 -20 30 -5 18 9 28 21 24 27 -4 6 -3 8 2 5 6 -3 27 9 47 28 20 19
37 31 37 26 0 -8 -52 -58 -94 -89 -16 -12 -26 -22 -22 -22 4 0 0 -10 -9 -22
-8 -13 -20 -23 -26 -23 -6 0 -18 -20 -26 -45 -8 -25 -19 -49 -23 -55 -4 -5
-10 -21 -13 -35 -6 -25 -5 -25 53 -23 32 0 64 4 71 8 7 5 10 3 7 -6 -3 -8 -15
-19 -28 -26 -13 -6 -27 -19 -32 -27 -5 -9 -15 -16 -23 -16 -8 0 -26 -24 -41
-52 -14 -29 -35 -62 -45 -74 -11 -11 -24 -35 -29 -52 -7 -27 -6 -34 11 -43 12
-6 27 -8 35 -5 9 3 12 1 9 -4 -3 -6 -21 -10 -40 -10 -36 0 -35 1 -50 -97 -5
-34 -3 -48 14 -69 12 -15 21 -38 21 -51 0 -21 3 -23 23 -17 28 8 38 24 31 47
-3 11 0 17 10 17 9 0 16 -5 16 -11 0 -5 -6 -7 -12 -4 -7 4 -6 1 3 -7 9 -7 19
-23 23 -35 6 -18 11 -20 37 -13 17 5 27 5 24 0 -7 -11 25 -29 41 -23 6 2 16
-3 23 -10 9 -12 5 -16 -21 -21 -21 -4 -34 -2 -36 4 -3 7 -14 2 -28 -11 -21
-20 -27 -21 -49 -9 -30 16 -32 27 -4 35 11 4 18 9 15 12 -8 9 -97 -38 -90 -48
3 -5 13 -5 25 1 11 6 23 8 28 5 15 -8 0 -44 -20 -50 -10 -4 -18 -11 -16 -17 1
-6 -3 -12 -10 -15 -7 -3 -13 24 -18 84 -3 48 -12 102 -19 118 l-14 30 -10 -26
c-6 -14 -14 -64 -19 -111 -9 -93 -3 -111 44 -137 33 -17 52 -13 65 14 6 14 15
25 20 25 4 0 -4 -18 -18 -40 -22 -33 -24 -43 -14 -55 18 -22 27 -19 39 15 5
17 13 30 16 30 3 0 -2 -16 -10 -36 -8 -20 -15 -40 -15 -45 0 -7 42 -29 82 -42
19 -6 177 14 284 37 39 8 102 18 139 22 l67 7 -6 61 c-7 66 -23 124 -39 144
-5 7 -25 20 -44 29 -50 23 -69 55 -53 92 13 32 9 131 -9 221 -6 30 -11 96 -12
145 -1 83 2 95 32 155 55 111 122 222 171 287 84 112 202 349 228 460 10 46
63 178 83 210 4 6 21 14 37 18 17 4 44 18 60 32 39 32 84 109 76 129 -3 8 -2
12 4 9 6 -3 10 -5 10 -3 1 2 3 41 6 88 5 78 8 87 32 104 99 72 168 190 223
386 19 63 43 129 54 146 12 18 39 80 60 139 35 98 37 113 32 183 -3 42 -7 83
-9 91 -5 23 63 34 79 13 7 -10 12 -24 12 -32 -3 -30 14 -79 31 -95 17 -16 18
-16 13 4 -9 34 16 25 32 -11 8 -18 15 -28 15 -23 1 15 29 -38 29 -55 0 -12 -2
-11 -13 3 -26 34 -26 -8 0 -46 13 -20 24 -43 24 -52 0 -10 5 -13 12 -9 7 4 8
3 4 -4 -8 -13 13 -56 65 -133 40 -60 154 -163 253 -231 73 -51 111 -93 125
-140 8 -27 33 -55 91 -105 60 -51 79 -74 80 -94 0 -14 -16 -94 -35 -178 -19
-84 -32 -157 -29 -163 5 -7 2 -8 -6 -3 -10 6 -12 0 -8 -23 3 -18 0 -29 -5 -25
-16 10 -2 -119 17 -154 10 -21 39 -45 81 -68 36 -20 67 -41 70 -46 3 -5 10
-43 14 -85 9 -73 11 -78 58 -128 74 -77 78 -83 63 -101 -11 -13 -10 -14 5 -9
14 6 16 4 10 -7 -7 -11 -6 -12 6 -3 18 15 89 28 89 16 0 -4 -6 -14 -12 -21
-10 -11 -10 -13 0 -7 18 11 15 -1 -7 -23 -43 -43 -121 -58 -121 -24 0 9 -2 14
-5 11 -3 -3 0 -35 6 -72 7 -37 15 -63 18 -59 8 10 101 11 101 1 0 -5 7 -8 15
-8 17 0 19 -19 4 -40 -9 -12 -10 -11 -6 8 3 12 4 22 2 22 -6 0 -45 -92 -45
-106 0 -19 -33 -34 -59 -27 -20 5 -22 10 -17 62 3 31 3 45 0 31 -3 -14 -12
-47 -21 -73 -8 -27 -13 -61 -10 -76 3 -16 -1 -65 -9 -111 -7 -45 -11 -86 -8
-91 8 -13 -15 -123 -26 -127 -13 -5 -13 -32 0 -32 6 0 10 -7 10 -15 0 -20 16
-19 24 1 4 9 9 14 13 10 4 -3 -4 -17 -16 -30 -19 -20 -21 -28 -12 -45 7 -12
17 -21 24 -21 7 0 21 -10 31 -21 13 -16 21 -18 29 -10 15 15 50 14 65 -1 10
-10 17 -10 32 0 11 6 39 12 64 12 24 0 48 6 55 13 11 14 90 42 97 34 3 -2 6
-14 9 -26 5 -29 14 -41 29 -41 7 0 21 -9 30 -19 19 -21 63 -30 151 -31 111 -1
139 1 150 10 14 12 165 43 173 36 3 -4 15 0 27 8 12 8 37 16 56 18 33 3 34 4
37 55 5 82 -4 91 -89 90 -50 0 -74 4 -80 14 -19 30 42 49 95 29 14 -5 26 -7
26 -5 0 9 -57 34 -95 41 -22 4 -64 17 -94 30 -29 13 -58 21 -64 17 -5 -3 -7
-1 -4 4 9 15 -19 36 -35 27 -7 -4 -10 -4 -6 1 8 8 -120 151 -132 148 -14 -4
-63 77 -69 114 -5 30 -12 38 -40 48 -19 6 -37 18 -39 26 -4 11 -2 12 9 2 21
-20 31 -15 18 10 -8 16 -4 14 15 -8 l27 -30 -7 50 c-3 28 -5 124 -3 215 8 449
1 660 -26 765 -32 127 -60 183 -90 181 -13 0 -21 -4 -19 -7 2 -4 -1 -21 -7
-38 -12 -35 -33 -40 -49 -12 -13 25 -13 34 0 26 6 -3 10 2 11 12 0 10 3 13 6
6 10 -26 23 -12 19 20 -3 27 3 38 39 72 52 50 70 94 67 165 -2 40 0 51 8 40 8
-12 10 -10 10 10 -1 33 -21 58 -59 71 -17 6 -29 15 -26 19 3 5 2 10 -2 12 -5
1 -37 43 -72 92 -58 80 -64 93 -64 138 0 35 -3 46 -10 39 -15 -15 -35 -14 -40
2 -2 6 -2 2 0 -10 2 -13 -1 -23 -7 -23 -5 0 -10 13 -10 28 0 17 -9 37 -21 48
-20 18 -21 18 -35 -1 -11 -14 -13 -33 -9 -67 4 -26 2 -55 -3 -64 -9 -16 -10
-15 -10 6 0 24 -16 106 -28 144 -4 12 -2 16 5 12 6 -4 11 -2 11 3 0 6 -5 11
-12 11 -6 0 -4 7 5 18 10 10 17 22 17 26 0 4 10 16 22 25 14 12 18 22 12 32
-4 8 -7 24 -5 37 7 59 -77 271 -102 255 -6 -3 -7 -1 -3 5 4 7 -13 37 -39 69
-26 31 -65 92 -86 135 -22 44 -69 128 -104 188 -36 60 -65 111 -65 114 0 3 57
6 128 7 149 1 214 9 220 28 3 10 -2 11 -19 6 -23 -7 -23 -7 -7 11 9 11 18 30
20 44 3 25 5 25 85 23 69 -1 91 -6 129 -27 58 -32 79 -34 64 -6 -12 22 -12 22
40 24 48 2 70 -27 28 -37 -14 -4 -27 1 -40 15 -10 12 -18 17 -18 11 0 -19 73
-94 112 -114 22 -11 37 -23 34 -26 -3 -4 -1 -12 5 -20 22 -26 -5 -13 -40 20
-23 21 -18 13 15 -25 27 -32 54 -58 59 -58 6 0 21 -12 34 -26 13 -14 30 -23
38 -20 8 3 11 1 8 -4 -4 -6 8 -13 25 -16 17 -4 33 -11 36 -15 3 -5 19 -9 36
-9 16 0 55 -7 85 -16 31 -9 69 -13 87 -10 19 4 26 3 18 -3 -20 -12 8 -21 66
-21 61 0 98 19 94 47 -2 12 5 27 16 35 11 7 20 16 20 21 0 4 3 13 5 20 4 9 6
9 6 -1 1 -7 5 -11 9 -8 5 3 51 -10 102 -29 68 -26 96 -32 106 -24 9 8 46 -2
137 -37 69 -26 132 -44 140 -41 23 9 62 96 48 110 -18 18 -13 31 6 16 15 -12
16 -12 10 4 -4 10 -7 21 -7 23 0 2 -9 4 -20 4 -21 0 -28 16 -9 22 24 8 -32 53
-106 83 -46 19 -83 41 -89 54 -6 11 -27 32 -46 46 -18 14 -30 25 -25 25 23 0
-31 39 -58 42 -21 2 -33 9 -35 21 -5 23 12 22 89 -8 39 -16 74 -23 89 -20 16
4 20 3 12 -3 -11 -7 -10 -10 3 -16 25 -9 35 -7 32 7 -1 8 8 11 25 9 24 -2 28
3 48 55 14 37 18 59 11 61 -6 2 -11 11 -11 19 0 10 5 13 18 8 9 -4 57 -22 107
-42 49 -19 97 -40 105 -48 17 -16 59 -33 96 -39 14 -3 64 -23 110 -45 47 -23
92 -41 99 -41 19 0 43 40 41 66 -2 24 -32 58 -44 50 -4 -2 -28 4 -52 15 -24
11 -53 21 -63 23 -11 1 -26 11 -33 20 -14 20 -36 13 -27 -9 3 -8 0 -15 -7 -15
-7 0 -10 8 -7 20 6 22 -17 48 -28 30 -3 -5 -3 -15 1 -21 7 -12 -30 -4 -56 13
-11 7 -7 8 13 3 20 -4 27 -2 27 10 0 9 -4 14 -9 10 -13 -8 -251 91 -276 115
-23 22 -51 27 -39 8 4 -7 3 -8 -4 -4 -6 4 -23 29 -38 57 -20 36 -32 48 -43 44
-32 -13 -121 -18 -133 -7 -7 5 -53 26 -103 46 -157 61 -227 93 -237 107 -7 11
-11 11 -15 2 -2 -7 -10 -13 -17 -13 -18 0 -386 147 -413 166 -13 8 -23 21 -23
28 0 9 -7 12 -17 10 -10 -3 -26 1 -35 8 -16 12 -16 15 -1 33 11 15 14 16 10 3
-3 -9 0 -19 9 -22 29 -11 38 -6 18 10 -18 14 -18 14 6 3 13 -7 31 -19 40 -28
13 -13 13 -14 -2 -8 -10 3 -18 2 -18 -4 0 -6 21 -19 48 -31 26 -11 71 -31 101
-45 30 -14 59 -26 65 -27 6 -2 27 -9 46 -18 80 -34 131 -50 137 -44 4 4 1 11
-6 15 -11 7 -11 10 0 15 8 3 2 4 -14 1 -17 -4 -26 -1 -25 6 2 6 -3 14 -11 17
-8 3 -11 0 -7 -7 4 -6 2 -11 -3 -11 -6 0 -11 8 -11 18 0 12 -2 14 -8 4 -7 -10
-20 -7 -63 12 -30 13 -68 30 -85 37 -19 8 -30 18 -27 26 3 7 0 13 -6 13 -6 0
-11 -5 -11 -11 0 -15 -42 0 -65 24 -17 19 -17 20 -1 14 10 -4 24 -7 32 -7 8 0
14 -8 15 -17 0 -11 3 -13 6 -5 2 6 10 12 16 12 23 0 96 -33 92 -41 -3 -4 0
-11 6 -15 8 -4 9 -3 5 4 -13 22 19 12 105 -30 79 -40 86 -45 78 -65 -9 -24 3
-29 35 -17 21 8 10 25 -12 18 -14 -5 -14 -4 -3 4 17 12 41 5 41 -13 0 -7 7
-16 16 -19 26 -10 29 -7 8 10 -18 14 -18 15 4 4 12 -6 22 -15 22 -19 0 -5 6
-11 13 -14 6 -3 29 -12 50 -21 21 -9 37 -12 37 -6 0 5 -6 10 -14 10 -8 0 -18
5 -21 10 -4 6 12 3 35 -6 22 -9 43 -14 46 -11 3 3 -21 15 -53 27 -66 25 -113
44 -163 69 -19 10 -54 24 -78 31 -24 8 -48 22 -53 32 -9 16 -8 18 8 9 17 -10
88 -39 453 -188 74 -31 141 -60 148 -65 9 -8 12 -5 12 11 0 11 -6 21 -13 21
-7 0 -37 26 -67 57 -30 32 -40 44 -21 28 l34 -30 -22 37 c-15 26 -22 50 -19
75 3 33 0 38 -20 41 -19 3 -23 9 -22 35 3 58 -1 62 -21 25 -13 -25 -24 -35
-34 -32 -8 4 -15 2 -15 -3 0 -5 -6 -18 -14 -28 -13 -18 -15 -18 -50 8 -32 25
-97 58 -221 112 -22 10 -44 20 -49 23 -5 3 -6 0 -2 -6 4 -7 6 -12 4 -12 -17 0
-385 157 -412 176 -31 21 -15 17 60 -17 111 -51 278 -119 282 -115 1 2 -30 18
-70 35 -279 118 -393 172 -402 190 -5 12 -52 37 -135 71 -69 29 -130 55 -134
60 -5 4 -4 18 3 30 9 16 8 25 -2 38 -9 10 -9 13 -1 9 26 -16 74 103 53 128
-19 22 -27 18 -34 -17 -3 -17 -8 -29 -11 -26 -3 2 0 19 5 38 11 40 -1 60 -37
60 -30 0 -243 90 -263 111 -8 9 -16 22 -18 30 -12 49 -108 119 -165 119 -13 0
-28 5 -35 12 -10 10 -17 8 -33 -8 l-21 -21 -54 36 c-49 32 -54 39 -54 71 1 29
3 32 13 20 7 -9 20 -14 30 -12 17 4 17 3 1 -17 -10 -11 -22 -17 -28 -14 -6 3
-5 0 2 -8 10 -11 15 -9 28 10 9 12 22 20 30 17 25 -10 15 2 -21 24 -19 12 -42
34 -50 48 -8 15 -14 21 -15 14 0 -7 -4 -11 -10 -7 -5 3 -7 13 -4 23 4 12 3 13
-3 4 -8 -10 -23 -5 -71 22 -34 19 -62 33 -62 30 0 -8 -73 35 -82 48 -4 7 -8
29 -8 48 0 29 8 44 39 74 38 37 68 106 55 127 -4 6 -1 15 5 19 9 5 10 16 3 41
-6 19 -11 26 -11 17 -1 -9 -11 -25 -24 -35 -20 -16 -35 -69 -16 -57 10 6 19
-22 19 -54 -1 -26 -2 -25 -20 10 -11 20 -24 39 -29 42 -5 3 -7 15 -4 26 4 13
-9 36 -41 73 -25 30 -46 59 -46 65 0 6 -9 16 -19 22 -26 14 -38 13 -23 -2 7
-7 12 -25 12 -40 0 -19 6 -31 18 -34 34 -11 47 -21 50 -42 2 -13 9 -19 17 -16
18 7 29 -14 15 -31 -6 -8 -8 -20 -4 -26 4 -7 3 -9 -3 -6 -5 3 -33 -14 -61 -39
-29 -25 -52 -43 -52 -40 0 4 14 30 30 59 17 30 30 58 30 63 -1 5 -21 25 -45
44 -24 19 -40 37 -35 40 5 3 5 12 1 19 -5 8 -5 26 -1 42 7 24 5 29 -18 38
l-27 9 27 1 c45 2 76 -17 97 -56 10 -21 28 -47 40 -57 21 -19 21 -19 36 18 8
20 18 36 21 36 3 0 2 -4 -1 -10 -3 -6 1 -7 9 -4 9 3 16 10 16 16 0 5 -4 6 -10
3 -5 -3 -10 -1 -10 5 0 6 -5 8 -12 4 -6 -4 -2 8 10 28 12 19 22 51 22 71 0 20
5 39 10 42 20 12 11 -72 -11 -99 -12 -15 -19 -29 -17 -32 13 -12 58 68 64 115
4 28 11 51 17 51 6 0 8 3 5 6 -3 3 -23 -4 -44 -15 -37 -20 -156 -32 -126 -12
7 4 -54 11 -144 15 -86 3 -162 10 -170 14 -7 4 83 7 199 7 117 0 232 2 258 5
l45 5 -18 48 c-10 26 -18 60 -19 75 0 15 -4 36 -9 47 -5 12 -6 -13 -3 -61 l6
-81 -33 -12 c-45 -15 -65 -15 -52 2 6 6 24 52 41 101 l30 90 -25 33 c-28 36
-118 101 -150 107 -10 2 -31 9 -46 15 -40 15 -126 20 -181 11z m173 -78 c13
-12 27 -19 32 -16 10 6 10 -17 0 -33 -4 -7 -35 -11 -80 -11 -70 0 -73 1 -97
32 -14 18 -25 36 -25 39 0 9 32 14 91 12 42 -2 63 -8 79 -23z m-131 -81 c-7
-2 -16 4 -21 13 -8 14 -13 15 -24 5 -11 -9 -14 -9 -14 1 0 9 -4 9 -13 2 -8 -7
-19 -6 -37 4 -19 11 -20 14 -5 9 16 -4 23 2 33 28 l13 32 39 -45 c22 -25 35
-47 29 -49z m186 20 c-3 -12 -10 -21 -15 -21 -4 0 -3 11 3 24 14 29 22 27 12
-3z m-388 -46 c15 -19 29 -39 29 -45 1 -5 3 -12 4 -15 1 -3 3 -8 4 -12 1 -5
12 -28 25 -51 21 -41 21 -77 -1 -39 -7 14 -13 15 -23 7 -18 -15 -95 3 -112 26
-7 10 -13 35 -13 56 0 31 3 36 18 31 9 -3 14 -3 10 2 -4 4 -3 14 2 21 6 6 10
16 9 20 -8 44 13 43 48 -1z m311 28 c-15 -2 -42 -2 -60 0 -18 2 -6 4 27 4 33
0 48 -2 33 -4z m206 -98 c-4 -8 -8 -15 -10 -15 -2 0 -4 7 -4 15 0 8 4 15 10
15 5 0 7 -7 4 -15z m-444 -5 c0 -5 -2 -10 -4 -10 -3 0 -8 5 -11 10 -3 6 -1 10
4 10 6 0 11 -4 11 -10z m393 -25 c-3 -9 -8 -14 -10 -11 -3 3 -2 9 2 15 9 16
15 13 8 -4z m-390 -95 c10 0 16 -4 13 -8 -7 -11 -64 -3 -73 11 -4 6 2 8 18 4
13 -4 32 -7 42 -7z m-3 -70 c0 -5 -2 -10 -4 -10 -3 0 -8 5 -11 10 -3 6 -1 10
4 10 6 0 11 -4 11 -10z m-8 -55 c-6 -34 -12 -32 -12 6 0 16 4 28 9 25 4 -3 6
-17 3 -31z m138 -74 c-11 -21 -92 -91 -105 -91 -4 0 10 14 31 31 22 17 46 41
54 55 17 28 35 33 20 5z m110 15 c0 -3 -4 -8 -10 -11 -5 -3 -10 -1 -10 4 0 6
5 11 10 11 6 0 10 -2 10 -4z m-83 -111 c-9 -5 -24 -15 -34 -21 -14 -10 -16
-14 -5 -25 9 -10 12 -10 12 -1 0 7 5 12 12 12 8 0 6 -7 -5 -17 -16 -16 -19
-16 -27 -3 -5 8 -7 23 -4 34 4 12 2 16 -5 12 -7 -4 -11 0 -11 12 0 10 11 24
25 30 20 9 26 8 34 -6 8 -13 11 -6 12 33 l3 50 3 -50 c3 -36 0 -52 -10 -60z
m-70 -37 c14 -51 10 -57 -17 -33 -26 24 -27 75 0 75 3 0 11 -19 17 -42z m196
12 c14 -11 31 -20 38 -20 10 0 10 -3 1 -12 -9 -9 -15 -8 -25 7 -19 25 -37 11
-37 -31 0 -40 5 -42 31 -11 16 19 15 15 -4 -25 -25 -54 -36 -60 -36 -20 -1 53
-13 122 -21 117 -5 -3 -11 -1 -15 5 -11 18 42 11 68 -10z m-238 -30 c4 -17 3
-21 -3 -11 -5 7 -14 11 -20 7 -17 -10 -25 13 -11 30 14 17 24 10 34 -26z m102
-32 c-3 -8 -6 -5 -6 6 -1 11 2 17 5 13 3 -3 4 -12 1 -19z m276 -50 c-3 -16 -9
-28 -14 -28 -12 0 -11 4 3 35 14 31 18 29 11 -7z m-552 -11 c12 -22 12 -22
-10 -3 -14 13 -21 15 -21 6 0 -7 -2 -11 -5 -8 -9 8 6 38 16 32 5 -3 14 -15 20
-27z m479 -7 c0 -11 -4 -20 -9 -20 -5 0 -7 9 -4 20 3 11 7 20 9 20 2 0 4 -9 4
-20z m31 -17 c-9 -15 -10 -14 -7 7 6 35 7 37 12 23 3 -7 1 -20 -5 -30z m51 -5
c-8 -8 -9 -4 -5 13 4 13 8 18 11 10 2 -7 -1 -18 -6 -23z m-732 -18 c0 -6 10
-8 24 -4 15 3 25 1 29 -8 4 -11 -5 -14 -33 -14 -22 0 -36 4 -33 10 4 5 -1 7
-10 3 -11 -4 -14 -2 -10 9 6 16 33 19 33 4z m582 -26 c-2 -27 1 -32 32 -41 24
-8 37 -8 45 0 13 13 15 -2 3 -20 -8 -13 -60 -10 -90 6 -26 14 -30 94 -4 89 12
-3 16 -12 14 -34z m58 27 c0 -13 -39 -58 -40 -46 0 10 31 55 38 55 1 0 2 -4 2
-9z m16 -33 c-18 -26 -22 -17 -5 14 6 11 13 17 16 15 3 -3 -2 -16 -11 -29z
m-691 -47 c-5 -16 2 -19 45 -25 27 -4 50 -11 50 -17 0 -6 22 -9 55 -8 31 2 60
-2 65 -7 17 -16 -152 1 -235 25 -95 28 -107 35 -42 28 36 -3 50 -1 54 9 8 21
15 17 8 -5z m85 -12 c0 -6 -4 -7 -10 -4 -5 3 -10 11 -10 16 0 6 5 7 10 4 6 -3
10 -11 10 -16z m-320 -24 c-7 -8 -17 -12 -22 -9 -6 4 -5 10 3 15 22 14 33 10
19 -6z m74 0 c-4 -8 -10 -12 -15 -9 -5 3 -6 -3 -2 -12 5 -12 3 -15 -6 -9 -10
6 -11 3 -1 -16 12 -23 11 -23 -6 -7 -16 16 -18 16 -30 0 -10 -14 -15 -15 -26
-4 -11 11 -10 12 7 6 18 -7 19 -6 6 9 -12 15 -12 17 3 11 12 -4 15 -2 10 9 -3
8 -1 18 5 22 7 4 8 -1 4 -12 -5 -15 -2 -14 18 5 27 25 41 29 33 7z m26 -20
c-19 -23 -3 -18 20 7 11 12 20 17 20 11 0 -16 -25 -33 -55 -39 -23 -4 -25 -2
-16 15 10 18 32 32 40 25 2 -2 -2 -10 -9 -19z m807 -7 c-3 -7 -5 -2 -5 12 0
14 2 19 5 13 2 -7 2 -19 0 -25z m-949 -17 c-8 -12 -17 -18 -21 -15 -3 3 2 14
11 25 21 24 28 16 10 -10z m258 21 c7 -4 -2 -16 -25 -31 -33 -21 -34 -22 -17
-2 29 32 15 33 -21 1 -17 -16 -29 -30 -27 -33 3 -2 -2 -7 -10 -10 -13 -5 -13
-2 -4 19 6 13 13 22 16 19 3 -2 13 7 24 20 19 25 43 31 64 17z m-355 -25 c-10
-9 -11 -8 -5 6 3 10 9 15 12 12 3 -3 0 -11 -7 -18z m403 -1 c-3 -8 -12 -17
-20 -20 -11 -4 -12 -2 -1 14 14 23 29 27 21 6z m253 -8 c24 -22 31 -48 13 -48
-5 0 -10 7 -10 15 0 8 -9 24 -20 35 -27 27 -12 26 17 -2z m-294 1 c-6 -6 -9
-17 -7 -24 3 -7 2 -15 -3 -18 -13 -8 -11 37 1 45 16 12 21 9 9 -3z m417 -42
c13 -10 19 -17 12 -17 -7 0 -27 15 -45 33 -18 17 -24 25 -13 16 12 -9 32 -23
46 -32z m-300 36 c-8 -3 -23 -15 -35 -26 -20 -19 -20 -19 13 -2 19 9 36 14 40
11 3 -3 0 -6 -7 -6 -7 0 -9 -4 -6 -10 6 -10 -10 -14 -52 -12 -13 1 -23 -3 -23
-8 0 -6 -6 -10 -12 -10 -7 0 4 16 25 35 21 19 46 35 55 34 13 0 14 -2 2 -6z
m-345 -21 c-3 -3 -11 0 -18 7 -9 10 -8 11 6 5 10 -3 15 -9 12 -12z m44 -3 c-7
-4 -17 -5 -22 -2 -5 3 -3 9 4 14 7 4 17 5 22 2 5 -3 3 -9 -4 -14z m406 -19
c-3 -5 -12 -10 -18 -10 -7 0 -6 4 3 10 19 12 23 12 15 0z m150 -10 c-11 -5
-31 -8 -45 -8 -23 0 -22 1 5 8 42 11 65 11 40 0z m-640 -20 c3 -5 1 -10 -4
-10 -6 0 -11 5 -11 10 0 6 2 10 4 10 3 0 8 -4 11 -10z m460 0 c-3 -5 -12 -10
-18 -10 -7 0 -6 4 3 10 19 12 23 12 15 0z m-182 -18 c-10 -10 -20 -17 -22 -16
-6 5 20 34 30 34 5 0 1 -8 -8 -18z m545 3 c-9 -9 -169 -15 -164 -6 4 5 43 10
88 10 44 0 79 -1 76 -4z m92 -5 c0 -5 -2 -10 -4 -10 -3 0 -8 5 -11 10 -3 6 -1
10 4 10 6 0 11 -4 11 -10z m-30 -39 c10 0 9 3 -5 9 -13 6 -15 9 -5 9 16 0 60
-29 44 -29 -5 -1 -35 -3 -66 -6 -36 -4 -58 -2 -58 4 0 15 53 31 65 21 5 -5 16
-9 25 -8z m290 9 c13 -9 13 -10 0 -9 -8 1 -26 5 -40 9 l-25 8 25 1 c14 0 32
-4 40 -9z m-639 -15 c-42 -19 -52 -19 -27 0 11 8 29 15 40 15 16 -1 12 -5 -13
-15z m464 5 c3 -5 2 -10 -4 -10 -5 0 -13 5 -16 10 -3 6 -2 10 4 10 5 0 13 -4
16 -10z m53 1 c7 -4 15 -17 17 -27 2 -10 4 -21 4 -23 1 -2 9 7 19 19 l19 23
21 -23 c12 -13 22 -28 22 -32 0 -15 47 -57 56 -50 4 4 4 1 -1 -6 -5 -10 -2
-13 11 -10 21 5 74 -18 74 -31 0 -9 -107 21 -142 40 -26 14 -30 11 -17 -12 9
-17 8 -20 -3 -17 -7 3 -15 13 -17 24 -2 10 -19 36 -37 57 -19 20 -34 44 -34
53 0 8 -4 13 -9 9 -5 -3 -12 -1 -16 5 -7 12 15 13 33 1z m-428 -17 c-3 -5 -8
-8 -12 -6 -5 1 -8 -2 -8 -7 0 -5 -14 -14 -30 -20 -17 -5 -28 -6 -25 -1 3 5 1
11 -5 15 -5 3 -10 0 -10 -8 0 -8 -8 -17 -17 -21 -10 -3 -25 -9 -33 -12 -11 -4
-10 -1 2 9 10 8 15 17 11 21 -4 4 1 4 11 0 13 -5 17 -4 12 4 -7 12 28 27 43
18 12 -8 42 4 36 14 -3 5 3 7 12 6 10 -2 16 -7 13 -12z m624 -13 c3 -5 -17
-11 -44 -13 -50 -3 -69 7 -27 15 40 8 66 7 71 -2z m-560 -21 c-3 -3 -10 -6
-15 -6 -22 -3 -23 -5 -13 -12 8 -5 7 -11 -4 -22 -14 -13 -15 -12 -10 2 9 22
-1 29 -23 18 -11 -7 -20 -7 -24 0 -3 5 9 13 27 18 35 10 71 11 62 2z m116 -5
c0 -12 -19 -12 -23 0 -4 9 -1 12 9 8 7 -3 14 -7 14 -8z m156 -4 c-3 -5 10 -12
29 -15 58 -11 49 -25 -12 -19 -32 3 -60 7 -62 9 -10 9 11 34 29 34 12 0 19 -4
16 -9z m234 5 c0 -3 -4 -8 -10 -11 -5 -3 -10 -1 -10 4 0 6 5 11 10 11 6 0 10
-2 10 -4z m45 -6 c3 -6 -1 -7 -9 -4 -18 7 -21 14 -7 14 6 0 13 -4 16 -10z
m-661 -25 c-4 -8 -1 -15 7 -15 7 0 9 -3 6 -6 -4 -4 -13 -2 -20 4 -15 13 -44
10 -76 -7 -30 -17 -38 -13 -13 5 44 30 105 42 96 19z m752 -26 c8 -13 -21 1
-51 26 -19 15 -18 15 12 1 17 -9 35 -21 39 -27z m-23 -18 c8 -9 0 -8 -21 5
-19 10 -39 25 -45 33 -8 9 0 8 21 -5 19 -10 39 -25 45 -33z m-873 29 c0 -5
-10 -15 -22 -21 -23 -12 -23 -12 -4 10 21 23 26 26 26 11z m430 -4 c0 -2 -13
-6 -30 -8 -16 -3 -30 -1 -30 4 0 4 14 8 30 8 17 0 30 -2 30 -4z m235 -94 c3
-20 10 -44 15 -53 5 -9 6 -27 4 -40 -5 -21 -4 -22 6 -6 8 13 9 31 1 68 -13 59
-13 72 -1 42 6 -14 18 -23 30 -23 13 0 24 -10 30 -26 13 -33 13 -47 0 -39 -5
3 -10 17 -10 31 0 17 -5 24 -20 24 -22 0 -26 -16 -10 -40 8 -13 10 -12 11 5 1
11 9 -10 18 -47 17 -69 36 -107 21 -44 -4 20 -5 38 -1 41 8 4 31 -82 31 -116
0 -16 -5 -18 -32 -12 -34 6 -51 21 -42 35 3 5 2 18 -2 31 l-8 22 -6 -25 c-4
-14 -2 -31 3 -37 7 -9 5 -13 -7 -13 -16 0 -32 41 -23 57 3 5 1 31 -5 58 -5 28
-11 66 -12 87 -2 20 -13 53 -26 75 l-22 38 26 -28 c14 -15 28 -44 31 -65z
m-595 43 c0 -2 -9 -3 -19 -2 -11 0 -18 5 -15 9 4 6 34 0 34 -7z m374 -1 c5
-12 2 -15 -10 -10 -8 3 -37 7 -62 7 -46 2 -46 2 -12 9 58 12 78 11 84 -6z
m-154 -9 c14 -3 46 -8 73 -12 26 -3 47 -9 47 -13 0 -5 -40 -5 -85 2 -5 1 -21
-2 -34 -6 -18 -6 -22 -5 -15 5 6 11 4 11 -10 0 -14 -12 -19 -12 -29 -1 -10 10
-8 12 8 6 16 -6 17 -5 8 5 -10 10 -16 9 -29 -2 -12 -9 -15 -10 -10 -1 5 8 -1
16 -16 22 -18 8 -14 9 22 5 25 -3 56 -7 70 -10z m-546 -10 c3 -8 2 -15 -3 -15
-5 0 -15 -20 -23 -45 -10 -29 -11 -45 -5 -45 6 0 3 -6 -6 -12 -10 -8 -22 -39
-28 -73 -9 -49 -121 -359 -135 -374 -2 -2 -6 -2 -9 1 -3 3 12 47 34 98 22 51
38 97 35 102 -3 4 -1 8 4 8 17 0 53 118 55 179 1 33 6 58 12 58 6 -1 9 4 8 11
-2 6 2 12 7 12 6 0 10 11 10 23 0 13 3 27 8 31 7 8 8 13 11 41 0 8 5 15 10 15
5 0 11 -7 15 -15z m1362 -57 c-2 -16 -8 -34 -14 -40 -6 -6 -7 4 -2 31 4 23 4
41 -1 41 -5 0 -14 10 -20 23 -12 22 -11 22 14 -2 19 -17 25 -32 23 -53z m-369
40 c-3 -8 -6 -5 -6 6 -1 11 2 17 5 13 3 -3 4 -12 1 -19z m229 -28 c26 -21 51
-37 56 -34 4 3 5 -2 2 -10 -5 -12 -11 -11 -32 10 -15 14 -42 34 -59 45 -18 11
-33 23 -33 25 0 12 23 0 66 -36z m25 13 l24 -28 -30 25 c-16 14 -32 26 -34 28
-2 1 0 2 6 2 5 0 20 -12 34 -27z m-534 11 c-3 -3 -12 -4 -19 -1 -8 3 -5 6 6 6
11 1 17 -2 13 -5z m702 -24 l16 -24 -27 19 c-15 11 -28 24 -28 28 0 15 23 1
39 -23z m-1004 5 c67 -9 146 -28 151 -36 2 -4 -10 -4 -28 1 -17 6 -34 8 -36 5
-3 -2 -13 0 -22 5 -10 5 -42 13 -72 16 -29 4 -62 11 -73 15 -16 7 -13 8 10 4
17 -2 48 -7 70 -10z m-835 -26 c0 -6 -4 -7 -10 -4 -5 3 -10 11 -10 16 0 6 5 7
10 4 6 -3 10 -11 10 -16z m1757 -1 c-3 -8 -6 -5 -6 6 -1 11 2 17 5 13 3 -3 4
-12 1 -19z m-720 6 c-3 -3 -12 -4 -19 -1 -8 3 -5 6 6 6 11 1 17 -2 13 -5z m83
-20 c9 -9 10 -14 3 -14 -7 0 -15 5 -18 10 -3 6 -17 10 -31 10 -15 0 -23 4 -19
10 8 13 44 4 65 -16z m177 10 c-3 -3 -12 -4 -19 -1 -8 3 -5 6 6 6 11 1 17 -2
13 -5z m-1311 -40 c-3 -7 0 -16 6 -20 7 -5 8 -2 3 7 -6 11 -5 12 6 2 10 -11
11 -15 0 -25 -10 -11 -15 -9 -24 7 -6 11 -13 30 -14 43 -2 20 0 22 13 11 8 -7
13 -18 10 -25z m1044 26 c8 -5 11 -10 5 -10 -5 0 -17 5 -25 10 -8 5 -10 10 -5
10 6 0 17 -5 25 -10z m-275 -10 c13 -6 15 -9 5 -9 -8 0 -22 4 -30 9 -18 12 -2
12 25 0z m342 -16 c-6 -6 -47 9 -47 17 0 5 11 3 25 -3 14 -6 24 -13 22 -14z
m558 13 c15 -3 38 -27 32 -33 -10 -10 -77 20 -77 34 0 9 6 12 18 7 9 -3 21 -7
27 -8z m-1144 -24 c-8 -15 -10 -15 -11 -2 0 17 10 32 18 25 2 -3 -1 -13 -7
-23z m819 2 c0 -8 -5 -15 -11 -15 -5 0 -8 4 -5 9 4 5 0 12 -6 14 -8 3 -6 6 5
6 9 1 17 -6 17 -14z m468 1 c-7 -8 -15 -12 -17 -11 -5 6 10 25 20 25 5 0 4 -6
-3 -14z m-1019 -22 c2 -2 -14 -4 -37 -4 -23 0 -42 4 -42 9 0 9 69 4 79 -5z
m1076 6 c3 -6 -1 -7 -9 -4 -18 7 -21 14 -7 14 6 0 13 -4 16 -10z m-945 -10 c8
-5 11 -10 5 -10 -5 0 -17 5 -25 10 -8 5 -10 10 -5 10 6 0 17 -5 25 -10z m106
-13 c11 -11 -19 -8 -36 3 -12 8 -10 9 7 7 12 -2 26 -6 29 -10z m314 3 c0 -5
-4 -10 -10 -10 -5 0 -10 5 -10 10 0 6 5 10 10 10 6 0 10 -4 10 -10z m-1310
-14 c0 -7 7 -19 15 -26 8 -7 12 -17 9 -22 -4 -5 -15 3 -25 19 -21 32 -24 43
-9 43 6 0 10 -6 10 -14z m863 -1 c26 -3 47 -9 47 -13 0 -12 -134 -10 -142 2
-14 21 -8 28 20 22 15 -2 48 -8 75 -11z m-203 -5 c0 -5 -4 -10 -10 -10 -5 0
-10 5 -10 10 0 6 5 10 10 10 6 0 10 -4 10 -10z m978 -15 c-12 -28 -23 -32 -34
-12 -4 6 -4 9 1 5 5 -5 14 1 22 12 19 28 25 25 11 -5z m-604 -5 c5 -5 -8 -7
-30 -5 -22 1 -42 -1 -45 -6 -3 -5 -14 0 -25 12 l-19 22 55 -7 c30 -4 59 -11
64 -16z m-414 6 c0 -3 -4 -8 -10 -11 -5 -3 -10 -1 -10 4 0 6 5 11 10 11 6 0
10 -2 10 -4z m1444 -38 c-7 -11 -7 -11 -24 22 -13 25 -13 25 8 6 12 -10 19
-23 16 -28z m-336 6 c2 -1 -9 -1 -23 -1 -25 0 -31 7 -18 20 3 4 13 1 22 -5 9
-7 17 -13 19 -14z m392 -5 l25 -20 -32 16 c-18 8 -33 18 -33 20 0 10 16 4 40
-16z m-2002 -48 c12 -7 32 -9 42 -6 16 5 19 3 13 -12 -3 -10 -9 -23 -12 -28
-3 -6 7 3 22 20 l28 30 -15 -30 c-22 -43 -66 -89 -75 -79 -31 35 -97 142 -85
137 8 -3 14 1 14 8 0 8 8 5 23 -8 12 -11 32 -26 45 -32z m519 30 c0 -11 -5
-17 -9 -15 -11 7 -10 34 1 34 6 0 9 -9 8 -19z m670 13 c-3 -3 -12 -4 -19 -1
-8 3 -5 6 6 6 11 1 17 -2 13 -5z m-112 -22 c-3 -3 -11 0 -18 7 -9 10 -8 11 6
5 10 -3 15 -9 12 -12z m-1235 -2 c0 -6 -7 -13 -15 -16 -8 -4 -15 -11 -15 -16
0 -6 6 -8 14 -5 24 9 23 -13 -1 -62 -27 -53 -44 -74 -37 -44 3 12 1 24 -5 27
-5 4 -8 13 -5 21 4 8 9 13 13 11 4 -3 12 3 18 13 10 16 8 20 -13 30 -23 10
-25 9 -19 -8 5 -15 2 -19 -14 -18 -21 1 -20 5 13 50 19 26 66 38 66 17z m1669
1 c10 -7 7 -9 -12 -8 -14 1 -23 5 -20 10 6 9 15 9 32 -2z m88 -6 c9 -24 -1
-27 -15 -5 -8 13 -8 20 -2 20 6 0 13 -7 17 -15z m-397 -47 c24 -21 38 -38 31
-38 -7 0 -33 21 -59 46 -54 52 -36 47 28 -8z m248 40 c17 -17 15 -33 -3 -18
-8 6 -19 9 -25 5 -11 -7 -14 8 -3 18 9 10 17 9 31 -5z m-85 -15 c-7 -2 -19 -2
-25 0 -7 3 -2 5 12 5 14 0 19 -2 13 -5z m-952 -20 c13 -16 12 -17 -3 -4 -10 7
-18 15 -18 17 0 8 8 3 21 -13z m903 3 c-3 -8 -13 -17 -22 -21 -13 -5 -13 -2 3
15 21 24 26 25 19 6z m411 -44 c-3 -3 -11 0 -18 7 -9 10 -8 11 6 5 10 -3 15
-9 12 -12z m-384 -23 c41 -16 88 -36 104 -44 78 -36 149 -65 159 -65 7 0 30
-9 51 -21 33 -17 247 -106 305 -127 9 -3 6 4 -7 17 -12 11 -25 21 -28 21 -3 0
-15 10 -26 21 -14 14 -24 18 -28 10 -5 -7 -14 -3 -26 11 -11 14 -20 18 -22 11
-5 -13 -33 -6 -33 8 0 4 7 6 17 2 14 -5 15 -1 9 35 -3 23 -3 42 0 42 18 0 449
-179 774 -322 405 -178 470 -208 519 -246 32 -24 33 -26 16 -39 -24 -16 -35
-17 -35 0 0 7 -8 13 -19 14 -10 1 -158 58 -329 127 -171 69 -322 126 -336 126
-13 0 -66 11 -117 25 -50 13 -96 22 -102 18 -6 -3 -7 -2 -4 4 3 5 -43 29 -106
53 -177 68 -380 151 -407 166 -41 23 -244 97 -262 96 -10 0 -20 4 -23 9 -13
20 -24 -3 -12 -28 8 -18 34 -36 86 -59 111 -51 80 -50 -42 1 -58 25 -112 45
-119 45 -7 1 -31 9 -53 20 -31 14 -43 16 -55 7 -8 -7 -4 3 9 21 15 21 29 31
38 28 8 -3 18 -6 23 -6 5 0 16 -7 24 -16 9 -8 16 -11 16 -5 0 15 -30 41 -47
41 -13 0 -13 3 -3 15 7 8 14 15 15 15 2 0 36 -14 76 -31z m-134 6 c0 -8 -4
-15 -9 -15 -10 0 -11 14 -1 23 9 10 10 9 10 -8z m378 -12 c-2 -10 -4 -20 -5
-23 -1 -3 -2 -8 -1 -12 0 -5 -3 -8 -9 -8 -12 0 -12 2 0 34 11 30 20 35 15 9z
m200 7 c3 -6 -1 -7 -9 -4 -18 7 -21 14 -7 14 6 0 13 -4 16 -10z m-147 -6 c19
-6 22 -12 20 -44 -1 -27 -6 -36 -15 -33 -7 3 -13 9 -13 13 0 5 -10 6 -22 3
-22 -4 -23 -4 -4 11 17 14 18 16 3 16 -19 0 -20 2 -11 24 7 18 9 18 42 10z
m-1902 -20 l29 -16 -30 6 c-28 5 -28 5 -7 -6 30 -15 28 -30 -3 -16 -14 6 -25
19 -25 30 0 22 1 22 36 2z m2149 -14 c3 -6 -1 -7 -9 -4 -18 7 -21 14 -7 14 6
0 13 -4 16 -10z m-115 -31 c0 -5 4 -8 8 -5 5 3 9 0 10 -7 0 -7 3 -23 7 -37 l6
-25 -13 25 c-7 14 -18 31 -25 38 -16 16 -16 22 -3 22 6 0 10 -5 10 -11z m-102
-108 c2 -6 8 -9 13 -5 5 3 9 0 9 -5 0 -17 -20 -13 -27 5 -3 9 -8 11 -12 6 -4
-6 -48 7 -111 32 -58 23 -113 45 -123 49 -10 4 -16 11 -13 16 7 11 259 -82
264 -98z m-1715 32 c-14 -32 -30 -62 -36 -68 -6 -6 -5 -2 1 10 5 11 12 35 15
53 5 34 23 62 38 62 4 0 -4 -26 -18 -57z m581 6 c-3 -5 -16 -2 -30 7 -32 22
-30 25 6 13 16 -6 27 -15 24 -20z m1166 21 c0 -5 -7 -7 -15 -4 -8 4 -15 8 -15
10 0 2 7 4 15 4 8 0 15 -4 15 -10z m60 -24 c-7 -7 -13 -7 -20 0 -6 6 -3 10 10
10 13 0 16 -4 10 -10z m410 -16 c8 -5 11 -10 5 -10 -5 0 -17 5 -25 10 -8 5
-10 10 -5 10 6 0 17 -5 25 -10z m-1676 -15 c3 -8 11 -15 18 -15 9 0 9 3 -2 11
-10 7 -11 9 -2 7 8 -2 14 -8 14 -13 0 -6 5 -16 11 -23 8 -10 7 -16 -3 -22 -8
-5 -18 -6 -22 -4 -4 3 -8 1 -8 -5 0 -19 -28 0 -34 24 -10 40 14 75 28 40z
m1118 -24 c24 -11 58 -25 75 -31 18 -7 30 -16 28 -21 -3 -4 -18 -1 -33 7 -15
7 -54 25 -87 39 -33 13 -52 24 -43 25 10 0 37 -9 60 -19z m-1020 -5 c24 -7 64
-19 91 -26 26 -7 47 -16 47 -21 0 -5 -12 -4 -26 1 -14 6 -57 17 -95 26 -38 9
-69 20 -69 25 0 12 1 12 52 -5z m1173 -12 c20 -8 35 -17 33 -20 -3 -2 -25 4
-49 15 -52 23 -38 28 16 5z m-2058 -23 c2 -13 -2 -30 -8 -37 -9 -12 -4 -14 32
-15 l44 -1 -40 -8 c-22 -4 -42 -6 -46 -5 -3 2 -10 -10 -17 -27 -11 -29 -10
-29 7 -14 25 23 38 20 16 -4 -10 -12 -25 -18 -32 -16 -7 3 -13 -2 -13 -11 0
-14 -3 -14 -12 -5 -9 9 -10 15 -2 20 19 12 44 76 46 115 1 41 19 46 25 8z m78
19 c4 -6 -6 -7 -27 -3 -44 8 -48 13 -10 13 17 0 34 -4 37 -10z m1560 -29 c44
-24 36 -23 -42 4 -29 11 -53 22 -53 26 0 11 50 -5 95 -30z m-1247 4 c-6 -14
-13 -23 -15 -21 -5 5 15 46 22 46 3 0 -1 -11 -7 -25z m-318 -5 c8 -5 11 -10 5
-10 -5 0 -17 5 -25 10 -8 5 -10 10 -5 10 6 0 17 -5 25 -10z m35 0 c-3 -5 -1
-10 6 -10 7 0 10 -3 6 -6 -9 -9 -28 6 -22 17 4 5 8 9 11 9 3 0 2 -4 -1 -10z
m2010 -10 c3 -6 -1 -7 -9 -4 -18 7 -21 14 -7 14 6 0 13 -4 16 -10z m580 -28
c-3 -3 -11 0 -18 7 -9 10 -8 11 6 5 10 -3 15 -9 12 -12z m-2042 -47 c0 -14 2
-23 6 -21 3 2 5 -18 4 -44 -2 -45 0 -49 25 -58 27 -9 27 -10 -13 -17 -22 -4
-48 -9 -57 -12 -10 -2 -18 0 -18 6 0 6 -6 11 -13 11 -7 0 -20 13 -30 29 -16
27 -16 30 3 69 11 23 20 48 20 56 0 20 17 30 23 14 3 -9 7 -8 12 4 6 16 9 16
22 2 9 -8 16 -26 16 -39z m1597 -10 c36 -15 70 -32 75 -37 12 -13 10 -12 -105
38 -47 20 -89 41 -95 46 -5 6 6 3 25 -5 19 -8 64 -27 100 -42z m-5 35 c3 -5 2
-10 -4 -10 -5 0 -13 5 -16 10 -3 6 -2 10 4 10 5 0 13 -4 16 -10z m-1165 -20
c3 -1 -5 -5 -18 -11 -17 -6 -31 -5 -50 6 -27 15 -26 15 18 11 25 -3 47 -5 50
-6z m1315 -37 c79 -31 123 -53 102 -53 -10 0 -158 59 -202 81 -54 27 -9 14
100 -28z m-1225 -15 c0 -12 -6 -9 -26 13 -19 22 -19 22 4 8 12 -8 22 -17 22
-21z m-1125 2 c-11 -5 -27 -9 -35 -9 -13 -1 -13 0 0 9 8 5 24 9 35 9 l20 0
-20 -9z m-75 -35 c-11 -12 -17 -25 -13 -30 5 -4 3 -5 -4 -2 -6 4 -13 1 -16 -5
-3 -9 -7 -7 -12 5 -5 12 0 23 15 35 33 27 56 24 30 -3z m2600 -10 c6 3 10 1
10 -5 0 -7 7 -10 15 -6 9 3 15 0 15 -9 0 -18 3 -18 -53 1 -28 10 -47 22 -47
31 0 13 3 13 25 -1 14 -9 30 -14 35 -11z m-1406 -13 c3 -5 -8 -6 -25 -4 -16 2
-29 6 -29 8 0 8 49 4 54 -4z m1361 -23 c22 -10 29 -16 15 -13 -28 7 -80 33
-65 33 6 0 28 -9 50 -20z m154 5 c6 -5 -10 -24 -22 -24 -21 0 -40 17 -32 29 6
10 41 7 54 -5z m122 -24 c41 -16 75 -30 77 -30 2 0 1 -4 -3 -9 -6 -11 -43 0
-101 30 -21 10 -44 19 -51 19 -7 0 -13 5 -13 10 0 15 12 13 91 -20z m-1393 -7
c4 1 8 -14 9 -33 2 -31 1 -32 -7 -10 l-8 25 -2 -25 c-2 -20 -3 -21 -7 -6 -3
11 -8 15 -12 8 -4 -6 -19 -8 -41 -3 l-35 7 45 8 c38 7 42 9 24 16 -36 14 -39
30 -4 20 17 -5 34 -8 38 -7z m-118 -3 c0 -5 -10 -10 -22 -10 -19 0 -20 2 -8
10 19 13 30 13 30 0z m1335 -11 c15 -14 -7 -10 -35 7 l-25 15 25 -7 c14 -3 29
-10 35 -15z m-1511 0 c-4 -7 0 -9 12 -6 22 7 70 10 99 7 15 -1 16 -3 5 -7 -8
-4 -20 -13 -27 -22 -11 -14 -12 -14 -13 4 0 15 -2 17 -9 6 -5 -8 -16 -11 -30
-6 -12 4 -21 2 -21 -4 0 -6 -9 -3 -20 6 -14 13 -16 19 -7 25 17 11 19 10 11
-3z m211 1 c-3 -5 -11 -10 -16 -10 -6 0 -7 5 -4 10 3 6 11 10 16 10 6 0 7 -4
4 -10z m258 -4 c9 -7 17 -19 17 -26 0 -7 6 -10 13 -7 22 8 77 -20 76 -40 -1
-14 -2 -14 -5 -3 -3 9 -18 21 -34 27 -27 10 -29 9 -40 -21 -9 -25 -13 -28 -20
-16 -6 9 -6 16 0 18 14 5 12 29 -2 38 -7 5 -9 2 -6 -7 3 -8 -1 -24 -9 -34 -13
-18 -14 -17 -8 16 4 23 3 39 -4 43 -12 8 -15 26 -3 26 4 0 15 -7 25 -14z
m-1252 -19 c-10 -9 -11 -8 -5 6 3 10 9 15 12 12 3 -3 0 -11 -7 -18z m146 17
c-3 -3 -12 -4 -19 -1 -8 3 -5 6 6 6 11 1 17 -2 13 -5z m578 -3 c-6 -4 -23 -11
-40 -15 -28 -6 -29 -5 -11 9 21 16 67 22 51 6z m-879 -16 c32 -8 63 -20 68
-26 8 -9 3 -10 -19 -4 -47 12 -57 11 -63 -4 -3 -10 2 -12 22 -7 15 4 26 2 26
-4 0 -9 -31 -15 -54 -11 -5 1 -12 -3 -15 -8 -5 -7 -17 -7 -36 -2 l-30 9 33 1
c24 1 35 7 41 24 7 19 4 24 -23 34 -44 17 -17 16 50 -2z m471 9 c-3 -3 -12 -4
-19 -1 -8 3 -5 6 6 6 11 1 17 -2 13 -5z m442 -8 c9 -10 7 -13 -11 -13 -13 -1
-32 -1 -43 -2 l-20 -2 20 -8 c31 -13 165 -7 174 8 6 9 19 7 57 -11 27 -13 51
-26 52 -31 2 -4 21 -10 43 -13 23 -4 39 -12 39 -20 0 -10 -6 -11 -26 -4 -31
12 -74 13 -74 2 0 -5 -26 -7 -57 -5 -32 2 -102 6 -156 9 -55 3 -111 11 -126
17 -23 10 -26 16 -20 42 4 17 7 24 8 18 2 -22 69 -8 127 26 1 1 7 -5 13 -13z
m397 -10 c2 -20 -1 -22 -11 -13 -9 8 -10 16 -3 25 13 16 13 16 14 -12z m34 14
c0 -5 -2 -10 -4 -10 -3 0 -8 5 -11 10 -3 6 -1 10 4 10 6 0 11 -4 11 -10z
m1410 -10 c0 -5 -9 -6 -20 -3 -11 3 -17 9 -15 14 7 10 35 1 35 -11z m-2235 0
c19 -8 19 -9 -2 -9 -12 -1 -25 4 -28 9 -7 12 2 12 30 0z m285 6 c0 -3 -4 -8
-10 -11 -5 -3 -10 -1 -10 4 0 6 5 11 10 11 6 0 10 -2 10 -4z m1400 -26 c0 -5
-2 -10 -4 -10 -3 0 -8 5 -11 10 -3 6 -1 10 4 10 6 0 11 -4 11 -10z m625 -10
c8 -13 -5 -13 -25 0 -13 8 -13 10 2 10 9 0 20 -4 23 -10z m-3110 -10 c3 -5 1
-10 -4 -10 -6 0 -11 5 -11 10 0 6 2 10 4 10 3 0 8 -4 11 -10z m1825 0 c0 -5
-2 -10 -4 -10 -3 0 -8 5 -11 10 -3 6 -1 10 4 10 6 0 11 -4 11 -10z m80 -5 c14
-8 21 -14 15 -14 -5 0 -21 6 -35 14 -14 8 -20 14 -15 14 6 0 21 -6 35 -14z
m1250 -1 c0 -2 -7 -4 -15 -4 -8 0 -15 4 -15 10 0 5 7 7 15 4 8 -4 15 -8 15
-10z m-2796 -3 c3 -5 0 -13 -7 -19 -10 -8 -13 -6 -13 9 0 20 11 25 20 10z
m1496 -22 c0 -31 -22 -49 -39 -32 -11 12 -10 14 5 11 15 -2 19 3 19 24 -1 14
3 24 7 22 4 -3 8 -14 8 -25z m1780 21 c0 -5 -5 -10 -11 -10 -5 0 -7 5 -4 10 3
6 8 10 11 10 2 0 4 -4 4 -10z m-2578 -46 c-2 -16 -1 -16 7 -4 5 8 13 11 17 7
4 -4 0 -15 -8 -24 -9 -10 -17 -23 -19 -30 -3 -9 -9 -9 -19 -3 -13 8 -13 11 -1
19 8 5 12 19 9 35 -4 17 -1 25 6 23 6 -2 10 -13 8 -23z m476 -19 c-1 -19 -6
-35 -10 -35 -4 0 -8 4 -8 9 0 5 -12 14 -27 19 -16 6 -22 11 -15 11 7 1 23 -4
35 -10 18 -9 20 -9 10 1 -12 13 -7 40 8 40 5 0 9 -16 7 -35z m1127 25 c3 -6
-1 -7 -9 -4 -18 7 -21 14 -7 14 6 0 13 -4 16 -10z m-1218 -6 c-3 -3 -12 -4
-19 -1 -8 3 -5 6 6 6 11 1 17 -2 13 -5z m1308 -27 c6 -5 -7 -2 -27 6 -20 9
-40 12 -44 9 -4 -4 -4 -2 0 5 5 9 13 10 34 1 15 -7 32 -16 37 -21z m-1624 11
c1 -7 2 -21 2 -30 0 -10 4 -18 9 -18 6 0 8 11 5 25 -3 16 0 24 7 22 6 -2 12
-16 14 -30 5 -37 47 -38 56 -2 8 32 25 24 19 -8 -4 -19 0 -23 19 -22 13 0 28
3 34 8 21 12 23 -19 3 -36 -10 -9 -19 -13 -19 -8 0 5 -11 11 -25 13 -14 3 -25
1 -25 -5 0 -6 -5 -6 -12 1 -7 5 -34 13 -60 17 -44 7 -51 13 -47 41 0 4 -5 10
-11 14 -7 4 -9 13 -6 19 10 15 36 14 37 -1z m259 -4 c0 -2 -9 -4 -20 -4 -11 0
-20 4 -20 9 0 5 9 7 20 4 11 -3 20 -7 20 -9z m2205 -2 c-3 -3 -11 0 -18 7 -9
10 -8 11 6 5 10 -3 15 -9 12 -12z m-2197 -43 c17 -8 32 -17 32 -21 0 -5 20
-17 45 -29 44 -21 59 -49 35 -64 -5 -3 -10 -1 -10 5 0 6 -4 9 -9 6 -5 -4 -20
7 -34 23 -22 27 -31 30 -75 28 -27 -1 -48 -5 -45 -9 2 -5 0 -8 -6 -8 -17 0
-23 20 -11 35 6 8 19 11 28 9 15 -5 15 -4 0 6 -9 6 -15 17 -12 25 4 8 -1 18
-10 21 -9 3 -16 10 -16 16 0 5 12 1 28 -10 15 -10 42 -25 60 -33z m271 -28
l-2 -26 -4 27 c-2 14 -11 32 -19 38 -8 7 -14 18 -14 24 1 6 10 0 20 -13 11
-13 19 -35 19 -50z m-339 38 c0 -13 -13 -11 -35 5 -18 13 -18 14 8 9 15 -3 27
-9 27 -14z m536 5 c-3 -9 -6 -22 -6 -30 0 -8 -4 -14 -8 -14 -5 0 -7 14 -4 30
2 17 9 30 14 30 6 0 7 -7 4 -16z m1699 -34 c3 -5 1 -10 -4 -10 -6 0 -11 5 -11
10 0 6 2 10 4 10 3 0 8 -4 11 -10z m-2810 -18 c-3 -3 -11 0 -18 7 -9 10 -8 11
6 5 10 -3 15 -9 12 -12z m2666 0 c-7 -2 -18 1 -23 6 -8 8 -4 9 13 5 13 -4 18
-8 10 -11z m-187 -6 c19 -8 37 -20 42 -27 6 -11 5 -12 -7 -2 -8 6 -30 18 -49
26 -19 9 -31 16 -27 16 4 1 23 -5 41 -13z m-472 -78 c132 -53 153 -71 118
-103 -9 -8 -24 -13 -34 -9 -9 3 -22 1 -30 -5 -15 -12 -46 -5 -46 11 0 7 -20 9
-52 6 -48 -5 -54 -3 -80 26 -16 17 -34 43 -40 58 -7 15 -16 25 -20 22 -4 -2
-6 4 -6 13 1 10 -2 28 -6 41 l-8 23 39 -16 c21 -9 95 -39 165 -67z m-1992 58
c0 -3 -4 -8 -10 -11 -5 -3 -10 -1 -10 4 0 6 5 11 10 11 6 0 10 -2 10 -4z
m1664 -23 c-4 -16 -12 -31 -17 -34 -5 -4 -12 -69 -15 -145 -2 -77 -6 -141 -8
-143 -2 -2 -4 62 -4 142 0 91 4 147 10 147 6 0 10 7 10 15 0 13 19 43 28 45 1
0 -1 -12 -4 -27z m115 0 c0 -25 -1 -26 -9 -8 -12 27 -12 35 0 35 6 0 10 -12 9
-27z m-1425 -9 c28 -16 53 -23 65 -19 20 6 68 -12 58 -22 -3 -2 -15 1 -27 7
-12 6 -24 9 -27 7 -3 -3 8 -12 24 -21 15 -8 22 -15 15 -16 -13 0 -139 65 -156
81 -18 16 1 9 48 -17z m311 8 c-3 -3 -11 0 -18 7 -9 10 -8 11 6 5 10 -3 15 -9
12 -12z m205 14 c0 -3 -4 -8 -10 -11 -5 -3 -10 -1 -10 4 0 6 5 11 10 11 6 0
10 -2 10 -4z m326 -68 c2 -70 -9 -72 -46 -11 -19 32 -38 60 -42 61 -5 2 -8 7
-8 12 0 4 21 0 48 -10 43 -16 47 -21 48 -52z m829 62 c3 -5 1 -10 -4 -10 -6 0
-11 5 -11 10 0 6 2 10 4 10 3 0 8 -4 11 -10z m-938 -22 c-3 -8 -6 -5 -6 6 -1
11 2 17 5 13 3 -3 4 -12 1 -19z m-543 -4 c3 -8 2 -12 -4 -9 -6 3 -10 10 -10
16 0 14 7 11 14 -7z m44 -29 c-3 -3 -9 2 -12 12 -6 14 -5 15 5 6 7 -7 10 -15
7 -18z m469 -10 c-4 -8 -11 -15 -17 -15 -6 0 -6 7 2 20 14 22 24 19 15 -5z
m730 -12 c-3 -10 -5 -4 -5 12 0 17 2 24 5 18 2 -7 2 -21 0 -30z m387 21 c20
-3 39 -10 41 -15 3 -4 12 -6 20 -2 8 3 15 0 15 -6 0 -6 6 -8 14 -5 7 3 58 -13
112 -35 172 -68 198 -81 188 -91 -13 -13 -96 19 -87 33 4 6 0 8 -11 4 -20 -8
-98 21 -90 34 3 5 -2 6 -10 3 -9 -3 -16 -1 -16 6 0 6 -5 8 -10 5 -9 -6 -218
69 -230 83 -3 3 3 2 12 -1 9 -3 33 -9 52 -13z m-2724 -42 c0 -15 -29 -2 -49
22 -11 13 -9 13 18 3 17 -6 31 -17 31 -25z m1068 21 c10 -16 86 -42 130 -43
15 0 22 -6 22 -20 0 -11 -4 -20 -10 -20 -5 0 -10 7 -10 15 0 9 -6 12 -15 9 -8
-4 -25 0 -38 9 -12 8 -42 18 -65 22 -34 5 -41 10 -32 20 8 10 7 14 -2 18 -9 4
-9 6 -1 6 7 1 16 -7 21 -16z m-221 -62 c10 -6 14 -10 8 -10 -15 0 -40 21 -53
46 -19 36 -13 41 7 6 11 -17 28 -36 38 -42z m2258 59 c3 -6 -1 -7 -9 -4 -18 7
-21 14 -7 14 6 0 13 -4 16 -10z m152 4 c-3 -3 -12 -4 -19 -1 -8 3 -5 6 6 6 11
1 17 -2 13 -5z m-1517 -238 c0 -86 -4 -156 -8 -156 -19 0 -41 37 -47 80 -3 25
-7 104 -9 176 l-3 131 33 -37 34 -37 0 -157z m-180 203 c-7 -11 -14 -18 -17
-15 -3 3 0 12 7 21 18 21 23 19 10 -6z m37 1 c1 -13 -4 -20 -15 -19 -10 0 -12
3 -5 5 7 3 9 12 6 20 -3 8 -1 14 4 14 5 0 9 -9 10 -20z m-1069 -39 c12 -27 26
-52 32 -56 6 -3 8 -10 5 -15 -3 -4 2 -13 10 -20 8 -7 15 -18 15 -26 0 -7 5
-16 12 -20 7 -5 8 -2 3 7 -6 11 -5 12 6 2 10 -10 10 -16 1 -25 -6 -6 -14 -10
-16 -7 -8 8 -106 196 -106 202 0 22 19 0 38 -42z m2652 39 c8 -5 11 -10 5 -10
-5 0 -17 5 -25 10 -8 5 -10 10 -5 10 6 0 17 -5 25 -10z m-2129 -37 c13 -16 12
-17 -3 -4 -17 13 -22 21 -14 21 2 0 10 -8 17 -17z m479 -4 c0 -5 -4 -9 -10 -9
-5 0 -10 7 -10 16 0 8 5 12 10 9 6 -3 10 -10 10 -16z m1996 -9 c15 -6 25 -13
22 -15 -3 -3 -22 1 -44 9 -21 8 -31 15 -22 15 9 1 29 -4 44 -9z m-2196 -29 c0
-10 -10 -26 -22 -37 l-21 -19 18 27 c9 16 15 35 11 43 -3 9 -2 13 4 10 6 -3
10 -14 10 -24z m2172 -80 c54 -25 77 -49 26 -28 -19 8 -97 38 -174 67 -76 29
-143 56 -148 61 -12 11 236 -73 296 -100z m-848 93 c9 -3 16 -10 16 -15 0 -4
-6 -6 -14 -3 -9 3 -15 -4 -18 -25 -4 -29 -4 -30 106 -72 61 -23 120 -47 131
-53 11 -6 25 -11 30 -12 6 0 19 -4 30 -9 11 -4 50 -19 88 -33 62 -23 84 -40
55 -43 -24 -2 -43 2 -83 20 -22 10 -53 21 -68 25 -15 4 -26 10 -23 15 3 4 -7
8 -22 9 -15 0 -54 13 -87 28 -33 16 -65 28 -72 29 -6 0 -23 10 -37 22 -14 13
-26 20 -26 18 0 -3 -9 -1 -19 5 -14 7 -21 6 -25 -3 -6 -11 -3 7 11 76 6 30 5
29 27 21z m103 -15 c32 -12 66 -29 76 -37 18 -16 256 -116 412 -173 44 -16 99
-36 123 -45 25 -10 42 -22 42 -32 0 -8 10 -26 21 -38 20 -21 15 -20 -67 11
-49 19 -98 39 -109 44 -11 5 -37 15 -58 22 -36 13 -44 28 -17 37 7 3 10 0 6
-6 -3 -6 -2 -13 3 -16 5 -3 11 1 15 9 3 8 2 16 -2 16 -43 7 -67 6 -72 -2 -7
-11 -80 16 -80 30 0 5 -83 42 -185 82 -110 44 -179 76 -172 81 17 11 29 10 23
-1 -4 -5 4 -7 16 -4 19 4 20 3 8 -7 -12 -9 -11 -10 9 -5 18 5 22 4 16 -6 -6
-9 -3 -11 9 -6 11 4 15 3 10 -4 -4 -8 1 -9 16 -4 13 4 20 3 17 -2 -4 -6 40
-27 96 -48 56 -21 112 -44 124 -51 12 -8 24 -10 27 -6 2 4 -46 27 -107 51 -62
25 -116 50 -122 57 -13 16 -125 55 -136 48 -5 -3 -9 2 -9 10 0 20 -2 20 67 -5z
m848 4 c48 -23 44 -35 -5 -15 -22 9 -40 20 -40 25 0 10 5 9 45 -10z m-2955
-57 c0 -12 -5 -7 -19 24 -11 24 -11 24 3 6 9 -11 16 -24 16 -30z m1840 23 c0
-5 -4 -9 -8 -9 -5 0 -9 7 -9 15 0 8 4 12 9 9 4 -3 8 -9 8 -15z m1210 -10 c0
-5 -6 -9 -13 -9 -7 0 -13 9 -13 19 0 15 3 17 13 9 7 -6 13 -14 13 -19z m-1043
-1 c-3 -8 -6 -5 -6 6 -1 11 2 17 5 13 3 -3 4 -12 1 -19z m40 -14 c-3 -3 -12
-4 -19 -1 -8 3 -5 6 6 6 11 1 17 -2 13 -5z m1095 -21 c38 -14 66 -28 64 -31
-4 -4 -135 45 -145 54 -11 10 19 2 81 -23z m-3128 -9 c3 -8 2 -12 -4 -9 -6 3
-10 10 -10 16 0 14 7 11 14 -7z m-84 -50 c0 -8 -5 -12 -10 -9 -6 4 -8 11 -5
16 9 14 15 11 15 -7z m3335 6 c3 -6 -1 -7 -9 -4 -18 7 -21 14 -7 14 6 0 13 -4
16 -10z m-1110 -48 c-3 -3 -11 0 -18 7 -9 10 -8 11 6 5 10 -3 15 -9 12 -12z
m-646 -46 c-9 -8 -10 -7 -5 7 3 10 7 24 7 30 1 7 3 4 6 -7 3 -10 -1 -23 -8
-30z m244 24 c3 -11 1 -18 -4 -14 -5 3 -9 12 -9 20 0 20 7 17 13 -6z m1667 10
c0 -5 -2 -10 -4 -10 -3 0 -8 5 -11 10 -3 6 -1 10 4 10 6 0 11 -4 11 -10z
m-2523 -22 c-3 -8 -6 -5 -6 6 -1 11 2 17 5 13 3 -3 4 -12 1 -19z m-542 -44
c23 -36 15 -37 -13 -3 -13 16 -19 29 -14 29 5 0 17 -12 27 -26z m1479 2 c-8
-20 -24 -21 -24 0 0 8 5 12 10 9 6 -3 10 -1 10 6 0 7 2 10 5 7 3 -3 3 -13 -1
-22z m644 2 c-3 -7 -15 -14 -29 -16 -23 -2 -23 -2 -5 13 24 18 39 20 34 3z
m-292 -20 c3 -24 -9 -23 -32 3 -19 21 -19 21 5 18 14 -2 25 -12 27 -21z m1401
0 c-3 -8 -6 -5 -6 6 -1 11 2 17 5 13 3 -3 4 -12 1 -19z m-1841 -15 c-7 -7 -26
7 -26 19 0 6 6 6 15 -2 9 -7 13 -15 11 -17z m525 -10 c7 -20 5 -23 -16 -23
-14 0 -25 4 -25 9 0 5 -3 17 -6 26 -5 13 -2 16 16 13 13 -1 27 -13 31 -25z
m295 11 c18 -14 18 -14 -6 -3 -31 14 -36 19 -24 19 6 0 19 -7 30 -16z m-1593
-19 c-19 -26 -49 -44 -37 -22 13 22 37 47 46 47 5 0 1 -11 -9 -25z m1207 5
c10 0 20 -7 24 -15 3 -8 9 -14 13 -13 4 1 22 -2 39 -6 25 -6 33 -13 36 -37 4
-25 1 -29 -18 -29 -24 0 -44 19 -22 21 7 1 17 1 21 0 5 -1 6 3 3 8 -8 13 -46
21 -46 10 0 -6 -11 3 -25 18 -13 15 -25 22 -25 16 0 -7 5 -13 10 -13 6 0 10
-5 10 -10 0 -7 -6 -7 -20 0 -11 6 -20 20 -20 31 0 11 -4 17 -10 14 -11 -7 -14
8 -3 19 4 4 9 2 11 -3 2 -6 12 -11 22 -11z m-56 -15 c3 -8 1 -15 -4 -15 -6 0
-10 7 -10 15 0 8 2 15 4 15 2 0 6 -7 10 -15z m303 -17 c-3 -7 -5 -2 -5 12 0
14 2 19 5 13 2 -7 2 -19 0 -25z m386 -98 c31 -13 57 -27 57 -31 0 -14 -22 -10
-70 12 -25 12 -106 43 -180 69 -87 30 -136 53 -138 63 -3 14 45 -2 331 -113z
m-1837 87 c-15 -23 -102 -75 -117 -70 -4 1 -12 -11 -19 -27 -7 -16 -19 -35
-27 -41 -12 -11 -13 -8 -7 17 9 40 5 36 94 88 44 25 80 51 80 58 0 6 3 9 6 6
3 -4 -2 -17 -10 -31z m-562 8 c11 -8 15 -15 10 -15 -6 0 -19 7 -30 15 -10 8
-14 14 -9 14 6 0 19 -6 29 -14z m490 -10 c-9 -14 -19 -24 -21 -21 -7 7 16 46
28 46 5 0 2 -11 -7 -25z m1816 3 c10 -6 7 -7 -10 -2 -14 3 -32 11 -40 16 -10
6 -7 7 10 2 14 -3 32 -11 40 -16z m-806 3 c3 -5 -8 -11 -24 -13 -17 -3 -30 -3
-30 -1 0 3 28 16 47 22 1 1 4 -3 7 -8z m-1054 -5 c0 -3 -4 -16 -10 -30 -10
-27 -33 -37 -25 -11 3 8 7 22 10 30 4 13 25 22 25 11z m-890 -41 c-6 -15 -13
-25 -16 -23 -2 3 1 17 7 32 16 34 23 27 9 -9z m820 31 c0 -2 -7 -7 -16 -10 -8
-3 -12 -2 -9 4 6 10 25 14 25 6z m1321 -32 c-5 -16 -10 -24 -10 -19 -1 6 -6 3
-11 -5 -7 -11 -10 -11 -10 -2 0 12 32 63 37 58 1 -1 -2 -15 -6 -32z m659 26
c8 -5 11 -10 5 -10 -5 0 -17 5 -25 10 -8 5 -10 10 -5 10 6 0 17 -5 25 -10z
m-1620 -10 c0 -5 -2 -10 -4 -10 -3 0 -8 5 -11 10 -3 6 -1 10 4 10 6 0 11 -4
11 -10z m776 -17 c1 -12 -3 -20 -7 -17 -5 3 -9 12 -9 20 0 8 -4 13 -9 9 -5 -3
-12 -1 -15 3 -3 5 5 9 17 8 15 -1 22 -8 23 -23z m954 17 c8 -5 11 -10 5 -10
-5 0 -17 5 -25 10 -8 5 -10 10 -5 10 6 0 17 -5 25 -10z m-2323 -17 c18 -3 30
-9 28 -13 -6 -9 -79 11 -92 24 -5 5 0 6 12 2 11 -4 35 -10 52 -13z m1989 -10
c-2 -3 -13 0 -24 6 -13 7 -23 7 -32 -2 -12 -10 -12 -9 -1 5 10 14 17 15 37 6
13 -6 22 -13 20 -15z m-1608 -21 c-14 -15 -34 -43 -43 -62 -10 -19 -25 -40
-34 -47 -9 -7 -11 -13 -5 -13 10 0 11 -17 5 -52 0 -5 -6 -8 -12 -8 -7 0 -9 10
-7 25 3 14 2 25 -2 25 -5 0 -6 9 -3 20 3 11 9 20 14 20 5 0 16 15 25 33 18 36
75 99 83 92 2 -3 -7 -18 -21 -33z m-976 -64 c-8 -74 -8 -174 0 -233 6 -48 6
-49 -7 -20 -8 17 -14 57 -14 90 -1 90 11 225 19 220 4 -3 5 -28 2 -57z m548
52 c0 -5 -2 -10 -4 -10 -3 0 -8 5 -11 10 -3 6 -1 10 4 10 6 0 11 -4 11 -10z
m275 -1 c3 -4 -3 -9 -15 -12 -11 -3 -20 -2 -20 3 0 4 -11 5 -25 2 -14 -2 -25
-7 -25 -11 0 -5 23 -43 37 -60 2 -3 10 4 17 15 11 14 11 21 3 26 -9 6 -9 8 -1
8 6 0 17 -7 24 -15 15 -18 -2 -45 -30 -45 -24 0 -70 38 -70 59 0 9 -4 21 -10
27 -6 6 10 10 49 9 33 0 62 -3 66 -6z m1234 -3 c10 -11 7 -14 -13 -12 -18 1
-22 4 -14 14 13 15 13 15 27 -2z m-1388 -46 c56 -27 110 -50 122 -50 11 0 35
11 53 25 21 16 35 21 39 14 4 -6 -3 -13 -15 -16 -17 -4 -20 -11 -16 -29 8 -29
-3 -76 -14 -69 -5 3 -13 -3 -19 -12 -6 -10 -11 -12 -11 -5 0 7 -9 3 -21 -9
-20 -20 -23 -20 -31 -5 -5 9 -13 14 -19 11 -8 -5 -14 33 -10 58 2 12 -46 67
-52 61 -10 -10 -41 6 -81 41 -22 19 -36 35 -33 35 4 0 52 -22 108 -50z m1453
35 c3 -8 1 -15 -3 -15 -5 0 -11 7 -15 15 -3 8 -1 15 3 15 5 0 11 -7 15 -15z
m376 11 c0 -3 -4 -8 -10 -11 -5 -3 -10 -1 -10 4 0 6 5 11 10 11 6 0 10 -2 10
-4z m-1732 -41 c-3 -3 -9 2 -12 12 -6 14 -5 15 5 6 7 -7 10 -15 7 -18z m1712
11 c0 -3 -4 -8 -10 -11 -5 -3 -10 -1 -10 4 0 6 5 11 10 11 6 0 10 -2 10 -4z
m476 -10 c51 -26 89 -39 102 -37 6 1 12 -3 12 -9 0 -15 -18 -13 -87 12 -35 12
-63 28 -63 35 0 16 1 16 36 -1z m-2326 -33 c0 -7 -39 17 -46 28 -3 6 5 3 20
-6 14 -10 26 -19 26 -22z m1853 4 c3 -8 2 -20 -3 -26 -5 -9 -7 -4 -7 13 0 29
2 32 10 13z m402 -7 c3 -5 2 -10 -4 -10 -5 0 -13 5 -16 10 -3 6 -2 10 4 10 5
0 13 -4 16 -10z m-2210 -12 c5 4 5 2 2 -4 -4 -7 0 -17 8 -24 12 -10 12 -14 0
-26 -19 -19 -22 -18 -29 10 -3 13 -9 32 -13 43 -6 15 -4 16 9 6 8 -7 19 -9 23
-5z m1420 -18 c-5 -17 -9 -19 -21 -9 -12 10 -12 13 3 24 22 16 27 13 18 -15z
m55 20 c-19 -13 -30 -13 -30 0 0 6 10 10 23 10 18 0 19 -2 7 -10z m75 0 c-3
-5 -10 -10 -16 -10 -5 0 -9 5 -9 10 0 6 7 10 16 10 8 0 12 -4 9 -10z m72 4
c-3 -3 -12 -4 -19 -1 -8 3 -5 6 6 6 11 1 17 -2 13 -5z m159 -22 c-4 -3 -14 2
-24 12 -16 18 -16 18 6 6 13 -6 21 -14 18 -18z m674 -24 c0 -7 -4 -7 -13 1 -8
6 -17 8 -20 4 -4 -3 -7 1 -7 11 0 14 4 15 20 6 11 -6 20 -16 20 -22z m-930
-33 c0 -9 -6 -12 -15 -9 -8 4 -12 10 -9 15 8 14 24 10 24 -6z m126 -5 c0 -12
-4 -16 -9 -11 -5 5 -6 14 -3 20 10 15 12 14 12 -9z m199 -18 c-3 -3 -11 0 -18
7 -9 10 -8 11 6 5 10 -3 15 -9 12 -12z m-1496 -67 c0 -5 -6 -1 -14 9 -8 11
-15 27 -15 35 1 17 29 -26 29 -44z m-1183 -27 c-14 -24 -26 -39 -26 -35 0 15
41 89 47 84 3 -3 -7 -25 -21 -49z m1154 1 c7 -12 5 -21 -7 -30 -15 -12 -16
-11 -11 9 4 15 2 25 -8 29 -8 3 -14 12 -14 20 0 13 3 13 16 3 8 -8 19 -21 24
-31z m109 -16 c17 -15 31 -32 31 -37 0 -5 6 -17 14 -25 8 -9 17 -29 20 -46 6
-28 5 -28 -8 5 -8 19 -15 29 -15 21 -1 -11 -4 -11 -16 -1 -8 7 -15 18 -15 26
0 7 -8 18 -17 24 -16 10 -16 11 2 5 15 -5 11 3 -15 31 -39 41 -30 39 19 -3z
m-78 10 c13 -16 12 -17 -3 -4 -17 13 -22 21 -14 21 2 0 10 -8 17 -17z m-481
-68 c13 -14 19 -25 13 -25 -6 0 -18 11 -27 25 -9 14 -15 25 -13 25 2 0 14 -11
27 -25z m-163 -47 c-3 -8 -6 -5 -6 6 -1 11 2 17 5 13 3 -3 4 -12 1 -19z m-525
-18 c-2 -16 -8 -30 -13 -30 -12 0 -11 17 1 41 15 26 17 24 12 -11z m1188 -40
c8 -25 18 -48 24 -51 18 -13 44 -199 27 -199 -6 0 -10 3 -9 8 1 4 -4 20 -10
35 -7 16 -12 34 -11 40 0 9 2 8 6 0 2 -7 9 -13 14 -13 6 0 6 8 -1 19 -5 11
-10 30 -11 43 0 22 -1 22 -9 3 -5 -11 -9 -18 -10 -15 0 3 -7 39 -14 80 -8 41
-17 84 -21 95 -5 13 -5 17 2 10 5 -5 16 -30 23 -55z m-1231 11 c-6 -18 -13
-30 -15 -28 -2 2 1 18 7 36 6 18 13 30 15 28 2 -2 -1 -18 -7 -36z m118 -1 c-2
-30 -11 -38 -22 -20 -6 9 11 50 20 50 2 0 3 -13 2 -30z m460 -2 c-3 -7 -5 -2
-5 12 0 14 2 19 5 13 2 -7 2 -19 0 -25z m1083 -9 c12 -23 20 -43 18 -45 -3 -2
-14 17 -26 41 -27 56 -20 60 8 4z m-1631 -61 c-1 -50 -3 -57 -8 -32 -7 29 -4
94 5 94 2 0 4 -28 3 -62z m819 -38 c9 0 10 -5 3 -17 -27 -47 -27 -47 -60 -15
-28 26 -30 31 -14 35 10 3 27 3 38 1 11 -2 26 -4 33 -4z m-888 -46 c-5 -19
-11 -39 -15 -42 -6 -6 0 32 11 66 8 27 11 10 4 -24z m887 -34 c0 -19 -4 -27
-10 -21 -5 5 -6 18 -2 30 9 29 12 26 12 -9z m-900 -52 c-3 -7 -5 -2 -5 12 0
14 2 19 5 13 2 -7 2 -19 0 -25z m931 8 c-7 -8 -15 -12 -17 -11 -5 6 10 25 20
25 5 0 4 -6 -3 -14z m842 0 c0 -3 -4 -8 -10 -11 -5 -3 -10 -1 -10 4 0 6 5 11
10 11 6 0 10 -2 10 -4z m-1783 -58 c-3 -7 -5 -2 -5 12 0 14 2 19 5 13 2 -7 2
-19 0 -25z m-10 -90 c-2 -13 -4 -5 -4 17 -1 22 1 32 4 23 2 -10 2 -28 0 -40z
m-10 -80 c-2 -13 -4 -5 -4 17 -1 22 1 32 4 23 2 -10 2 -28 0 -40z m1135 -8
c-6 -31 -10 -39 -13 -25 -6 21 11 97 17 80 2 -5 0 -30 -4 -55z m638 30 c0 -5
-2 -10 -4 -10 -3 0 -8 5 -11 10 -3 6 -1 10 4 10 6 0 11 -4 11 -10z m-525 -30
c3 -6 -1 -7 -9 -4 -18 7 -21 14 -7 14 6 0 13 -4 16 -10z m544 -30 c0 -10 -3
-8 -9 5 -12 27 -12 43 0 25 5 -8 9 -22 9 -30z m-1782 -12 c-3 -8 -6 -5 -6 6
-1 11 2 17 5 13 3 -3 4 -12 1 -19z m8 -87 c3 -5 1 -12 -5 -16 -5 -3 -10 1 -10
9 0 18 6 21 15 7z m1883 -16 c-3 -3 -9 2 -12 12 -6 14 -5 15 5 6 7 -7 10 -15
7 -18z m120 -48 c11 -11 18 -25 16 -32 -3 -7 0 -16 7 -21 8 -4 10 -3 5 4 -4 7
-5 12 -2 12 13 0 67 -92 71 -122 4 -26 3 -29 -4 -13 -5 11 -10 16 -11 10 0 -5
-7 1 -15 15 l-15 25 6 -26 c4 -21 1 -27 -15 -32 -12 -3 -24 0 -28 5 -3 7 -1 8
5 4 15 -9 15 -7 -2 42 -8 22 -12 42 -9 45 9 9 -29 77 -48 88 -11 5 -19 6 -19
2 0 -5 -10 -14 -22 -22 -23 -14 -23 -13 1 12 14 16 29 23 40 20 13 -5 14 -3 4
8 -7 7 -13 22 -13 34 1 16 4 14 14 -10 7 -16 23 -38 34 -48z m-43 -162 c10
-24 21 -42 26 -39 5 3 6 -2 3 -10 -3 -9 -8 -16 -9 -16 -4 0 -55 109 -55 117 0
16 21 -15 35 -52z m-35 -25 c12 -33 20 -63 18 -66 -3 -2 -14 19 -26 48 -11 29
-24 62 -28 72 -5 13 -4 17 3 13 6 -4 21 -34 33 -67z m-335 -18 c-3 -16 -1 -41
5 -57 15 -40 4 -43 -15 -4 -13 26 -14 40 -6 62 14 35 24 35 16 -1z m-1350 8
c3 -5 1 -10 -4 -10 -6 0 -11 5 -11 10 0 6 2 10 4 10 3 0 8 -4 11 -10z m-325
-19 c0 -6 -9 -9 -19 -8 -11 0 -17 5 -15 9 7 11 34 10 34 -1z m1531 0 c-8 -5
-11 -17 -7 -32 7 -24 7 -24 -8 1 -21 34 -20 40 7 40 16 0 18 -3 8 -9z m238
-21 c7 -21 7 -30 -1 -30 -5 0 0 -9 13 -20 29 -23 20 -25 -27 -5 -30 12 -34 17
-25 33 6 11 7 22 4 26 -3 3 -1 6 6 6 7 0 9 5 6 10 -3 6 -2 10 3 10 6 0 15 -13
21 -30z m-1769 -20 c0 -5 -7 -10 -15 -10 -8 0 -15 5 -15 10 0 6 7 10 15 10 8
0 15 -4 15 -10z m286 -25 c1 -16 -3 -25 -13 -25 -8 0 -12 3 -10 8 2 4 7 15 10
25 9 23 12 22 13 -8z m50 -22 c-4 -34 -3 -42 3 -28 7 14 10 -5 10 -68 1 -52
-3 -86 -8 -82 -5 3 -12 -3 -14 -12 -4 -14 -5 -13 -6 5 0 12 2 22 7 22 4 0 6
19 3 43 -4 41 -4 41 -17 -28 -18 -92 -22 -104 -34 -85 -5 9 -5 19 2 27 6 7 8
42 6 82 -3 60 -1 68 11 58 12 -10 13 -9 2 11 -12 23 -7 47 9 37 4 -3 11 11 14
30 10 52 18 43 12 -12z m1233 -22 c-3 -7 -13 3 -23 21 l-19 33 23 -21 c12 -12
21 -27 19 -33z m660 -8 c-2 -24 -2 -25 -6 -5 -5 26 -14 27 -53 7 -18 -9 -30
-11 -30 -5 0 13 36 28 68 29 18 1 22 -4 21 -26z m-2228 -2 c-7 -5 -11 -13 -8
-18 3 -5 -3 -9 -13 -9 -18 0 -18 2 -3 18 9 10 21 18 27 18 6 0 5 -4 -3 -9z
m245 -23 c-2 -13 -9 -43 -16 -67 -6 -23 -9 -49 -6 -57 8 -21 -11 -64 -29 -64
-18 0 -19 12 -2 29 6 6 12 15 13 19 2 26 17 102 25 130 12 37 21 43 15 10z
m-127 -80 c-21 -100 -36 -133 -24 -53 11 84 26 145 35 145 4 0 -1 -41 -11 -92z
m281 -11 c0 -10 7 -20 15 -23 8 -4 15 -10 15 -16 0 -5 -4 -6 -10 -3 -6 4 -8
-15 -6 -51 5 -67 -14 -61 -21 8 -3 24 -9 47 -14 53 -5 5 -9 29 -9 55 1 44 1
44 15 20 8 -14 14 -33 15 -43z m-229 2 l-10 -24 0 26 c-1 14 2 29 6 33 12 12
14 -9 4 -35z m259 -6 c0 -7 -4 -13 -10 -13 -5 0 -10 12 -10 28 0 21 2 24 10
12 5 -8 10 -21 10 -27z m1434 21 c3 -8 2 -12 -4 -9 -6 3 -10 10 -10 16 0 14 7
11 14 -7z m-179 -4 c3 -6 -1 -7 -9 -4 -18 7 -21 14 -7 14 6 0 13 -4 16 -10z
m240 -10 c-3 -5 -11 -10 -16 -10 -6 0 -7 5 -4 10 3 6 11 10 16 10 6 0 7 -4 4
-10z m-1584 -73 c-10 -9 -11 -8 -5 6 3 10 9 15 12 12 3 -3 0 -11 -7 -18z
m1889 -27 c9 -16 8 -18 -5 -14 -8 4 -15 12 -15 20 0 20 7 17 20 -6z m-2143
-77 c-2 -16 -4 -5 -4 22 0 28 2 40 4 28 2 -13 2 -35 0 -50z m-253 12 c2 -22 9
-52 15 -67 15 -41 3 -34 -15 7 -7 19 -14 51 -14 71 0 47 7 41 14 -11z m2370
-70 c11 -57 -9 -32 -22 27 -5 26 -7 50 -3 53 6 7 14 -17 25 -80z m64 10 c0 -5
-6 4 -13 20 -8 17 -14 37 -14 45 0 8 7 -1 14 -20 7 -19 13 -39 13 -45z m-2008
-15 c13 -9 13 -10 0 -10 -8 0 -22 5 -30 10 -13 9 -13 10 0 10 8 0 22 -5 30
-10z m-335 -18 c-3 -3 -11 0 -18 7 -9 10 -8 11 6 5 10 -3 15 -9 12 -12z m210
-32 c-16 -16 -33 -30 -39 -30 -9 0 53 59 63 60 3 0 -8 -13 -24 -30z m-435 -9
c-5 -11 -15 -23 -22 -27 -7 -5 -8 -2 -3 7 21 37 44 55 25 20z m2533 -112 l6
-84 -14 75 c-8 41 -17 91 -20 110 l-7 35 15 -26 c8 -15 17 -65 20 -110z
m-2298 91 c3 -5 1 -10 -4 -10 -6 0 -11 5 -11 10 0 6 2 10 4 10 3 0 8 -4 11
-10z m-290 -71 c-13 -24 -25 -40 -25 -36 0 13 41 89 46 84 2 -2 -7 -24 -21
-48z m385 -17 c0 -15 -2 -15 -10 -2 -13 20 -13 33 0 25 6 -3 10 -14 10 -23z
m-29 -49 c-8 -15 -10 -15 -11 -2 0 17 10 32 18 25 2 -3 -1 -13 -7 -23z m-388
2 c-3 -9 -8 -14 -10 -11 -3 3 -2 9 2 15 9 16 15 13 8 -4z m2634 -102 c-3 -10
-5 -2 -5 17 0 19 2 27 5 18 2 -10 2 -26 0 -35z m-2786 -170 c-6 -22 -8 -16 -8
27 0 43 2 49 8 28 4 -16 4 -40 0 -55z m2422 -35 c-4 -29 -13 -42 -38 -58 -43
-27 -52 -25 -51 9 1 16 3 28 6 26 3 -2 23 12 45 30 22 19 40 33 41 32 1 -1 -1
-19 -3 -39z m-2426 -75 c-2 -16 -4 -3 -4 27 0 30 2 43 4 28 2 -16 2 -40 0 -55z
m0 -65 c-3 -7 -5 -2 -5 12 0 14 2 19 5 13 2 -7 2 -19 0 -25z m0 -145 c-3 -10
-5 -2 -5 17 0 19 2 27 5 18 2 -10 2 -26 0 -35z m2787 -169 c9 -24 2 -26 -12
-4 -7 11 -8 20 -3 20 5 0 12 -7 15 -16z m-2798 -64 c-7 -24 -18 -46 -25 -48
-9 -3 -10 1 -3 14 6 11 16 34 23 52 17 46 21 35 5 -18z m2849 -39 c-3 -6 -11
-11 -16 -11 -5 0 -4 6 3 14 14 16 24 13 13 -3z m67 -100 c29 -38 78 -98 108
-132 30 -35 41 -53 25 -39 -17 14 -31 28 -33 33 -2 4 -9 4 -14 1 -7 -4 -8 -2
-4 4 5 8 -32 62 -64 92 -14 13 -81 110 -76 110 3 0 29 -31 58 -69z m-445 33
c4 -11 8 -12 13 -4 5 8 9 8 13 -2 7 -18 -23 -19 -40 -2 -16 15 -17 24 -3 24 6
0 13 -7 17 -16z m406 -20 c26 -35 17 -38 -11 -3 -13 16 -20 29 -15 29 4 0 16
-12 26 -26z m-428 -33 c3 -5 1 -12 -4 -15 -5 -3 -11 1 -15 9 -6 16 9 21 19 6z
m546 -43 c8 -15 8 -18 0 -14 -6 4 -16 16 -22 28 -8 15 -8 18 0 14 6 -4 16 -16
22 -28z m-491 3 c-8 -6 -17 -8 -21 -5 -7 4 -20 -20 -24 -41 -3 -23 -18 -45
-30 -45 -7 0 -16 -6 -18 -12 -3 -8 -6 -7 -6 4 -1 9 8 20 19 23 11 4 20 15 20
26 0 36 19 59 48 59 20 0 23 -3 12 -9z m-2626 -68 c-10 -7 -23 -13 -28 -12 -6
0 -1 7 12 16 12 8 23 23 23 32 1 12 3 11 6 -3 3 -12 -2 -25 -13 -33z m3175 2
c17 -19 27 -35 22 -35 -5 0 -21 16 -35 35 -15 19 -25 35 -23 35 2 0 18 -16 36
-35z m-3179 -33 c0 -5 -7 -17 -16 -28 -8 -10 -14 -14 -11 -9 2 6 7 18 10 28 7
17 17 23 17 9z m2680 -72 c0 -5 -8 -10 -17 -10 -15 0 -16 2 -3 10 19 12 20 12
20 0z m621 -20 c-13 -11 -31 -20 -40 -20 -10 0 -6 7 14 20 39 26 57 25 26 0z
m-3259 -22 c-8 -8 -9 -4 -5 13 4 13 8 18 11 10 2 -7 -1 -18 -6 -23z m2792 -7
c-6 -6 -24 19 -24 34 1 6 7 1 15 -9 8 -11 12 -22 9 -25z m376 19 c8 -5 11 -10
5 -10 -5 0 -17 5 -25 10 -8 5 -10 10 -5 10 6 0 17 -5 25 -10z m-442 -25 c-3
-3 -9 2 -12 12 -6 14 -5 15 5 6 7 -7 10 -15 7 -18z m397 15 c3 -5 1 -10 -4
-10 -6 0 -11 5 -11 10 0 6 2 10 4 10 3 0 8 -4 11 -10z m240 0 c-3 -5 -11 -10
-16 -10 -6 0 -7 5 -4 10 3 6 11 10 16 10 6 0 7 -4 4 -10z m-3391 -52 c-4 -33
-27 -58 -32 -34 -4 17 15 66 26 66 5 0 8 -14 6 -32z m2929 25 c-7 -2 -19 -2
-25 0 -7 3 -2 5 12 5 14 0 19 -2 13 -5z m97 -20 c0 -5 18 -7 40 -7 22 1 42 -1
44 -5 2 -3 -39 -8 -91 -9 -97 -4 -123 -13 -123 -46 0 -8 -4 -17 -9 -20 -11 -7
4 63 16 75 4 4 31 10 58 12 28 2 53 4 58 5 4 1 7 -1 7 -5z m160 -2 c0 -5 -13
-11 -30 -13 -16 -3 -30 -1 -30 3 0 7 10 10 53 18 4 0 7 -3 7 -8z m185 -11 c3
-5 -1 -10 -10 -10 -10 0 -14 -5 -9 -12 4 -7 -1 -5 -11 4 -12 11 -24 14 -39 9
-11 -5 -43 -11 -71 -15 l-50 -7 30 20 c22 16 46 21 92 21 34 0 65 -4 68 -10z
m40 -20 c3 -5 -1 -10 -10 -10 -9 0 -13 5 -10 10 3 6 8 10 10 10 2 0 7 -4 10
-10z m-310 -34 c-16 -7 -39 -10 -49 -8 -20 5 -20 5 0 13 10 4 33 8 49 8 l30 0
-30 -13z m-3100 -6 c3 -6 -1 -7 -9 -4 -18 7 -21 14 -7 14 6 0 13 -4 16 -10z
m-35 -30 c0 -20 -5 -30 -15 -30 -8 0 -12 6 -10 15 3 8 7 22 10 30 7 25 15 17
15 -15z m2608 -1 c-6 -16 -12 -28 -14 -26 -5 5 13 57 20 57 3 0 0 -14 -6 -31z
m412 21 c0 -11 -38 -48 -65 -62 -11 -6 -2 8 20 30 45 46 45 46 45 32z m327 -6
c-3 -3 -12 -4 -19 -1 -8 3 -5 6 6 6 11 1 17 -2 13 -5z m-312 -85 c-13 -24 -25
-38 -25 -30 0 16 40 84 46 78 3 -2 -7 -24 -21 -48z m-2807 20 l37 -1 -30 -13
-30 -14 37 -1 c49 0 57 -16 11 -23 -45 -8 -71 11 -70 51 0 15 2 21 4 15 3 -7
21 -13 41 -14z m172 1 c0 -5 -8 -10 -17 -10 -15 0 -16 2 -3 10 19 12 20 12 20
0z m30 0 c0 -5 -5 -10 -11 -10 -5 0 -7 5 -4 10 3 6 8 10 11 10 2 0 4 -4 4 -10z
m2678 -15 c-6 -14 -13 -23 -15 -21 -5 5 15 46 22 46 3 0 -1 -11 -7 -25z
m-2788 5 c-13 -9 -13 -12 3 -24 12 -9 14 -16 7 -21 -5 -3 -8 -11 -5 -16 4 -5
-1 -9 -9 -9 -9 0 -16 -5 -16 -10 0 -6 -6 -10 -12 -9 -7 2 -29 -5 -48 -13 -19
-9 -28 -17 -19 -17 9 -1 16 -7 16 -15 0 -10 -15 -6 -52 15 -28 16 -62 29 -74
29 -45 0 -11 15 41 18 111 7 163 17 159 32 -2 8 -6 23 -8 33 -4 12 0 17 13 17
16 0 17 -2 4 -10z m-160 -4 c0 -3 -4 -8 -10 -11 -5 -3 -10 -1 -10 4 0 6 5 11
10 11 6 0 10 -2 10 -4z m-215 -84 c-6 -7 -34 11 -29 19 3 5 11 3 19 -4 7 -6
12 -13 10 -15z m512 1 c3 -7 -7 -15 -21 -19 -14 -3 -23 -10 -20 -15 3 -5 0 -9
-5 -9 -6 0 -11 4 -11 9 0 5 -9 7 -20 4 -11 -3 -20 -9 -20 -13 0 -4 -11 -10
-25 -12 -13 -3 -22 -1 -19 3 3 5 -4 9 -15 9 -13 0 -21 7 -21 16 0 14 3 14 15
4 12 -10 15 -10 15 2 0 8 12 19 28 24 37 14 114 12 119 -3z m93 -26 c0 -5 -6
-4 -13 2 -8 6 -17 8 -20 4 -4 -3 -7 0 -7 9 0 24 14 30 27 12 7 -10 13 -22 13
-27z m-66 2 c-31 -12 -39 -10 -19 5 11 8 24 12 29 8 5 -3 1 -9 -10 -13z m-369
0 c20 -8 19 -9 -1 -6 -11 1 -28 -4 -37 -12 -12 -9 -17 -10 -17 -2 0 9 -5 9
-20 1 -22 -12 -27 -1 -8 18 14 14 54 15 83 1z"/>
<path d="M4173 5418 c3 -9 1 -19 -6 -22 -9 -3 -9 -5 0 -5 18 -1 27 19 13 32
-10 9 -12 8 -7 -5z"/>
<path d="M2850 5290 c0 -5 5 -10 10 -10 6 0 22 -25 37 -56 24 -51 28 -55 39
-39 8 10 11 22 8 27 -3 5 0 15 6 23 10 12 9 15 -2 15 -9 0 -32 11 -52 25 -41
28 -46 29 -46 15z"/>
<path d="M4237 5164 c-9 -9 14 -54 25 -48 4 3 6 10 3 15 -4 5 -1 9 4 9 6 0 11
5 11 11 0 8 -4 8 -14 0 -9 -7 -17 -8 -20 -2 -3 5 0 12 6 14 7 3 8 6 2 6 -6 1
-13 -2 -17 -5z"/>
<path d="M4538 5158 c5 -5 16 -8 23 -6 8 3 3 7 -10 11 -17 4 -21 3 -13 -5z"/>
<path d="M3670 4601 c0 -6 4 -13 10 -16 6 -3 7 1 4 9 -7 18 -14 21 -14 7z"/>
<path d="M3870 4590 c-9 -6 -10 -10 -3 -10 6 0 15 5 18 10 8 12 4 12 -15 0z"/>
<path d="M3890 4475 c7 -9 15 -13 17 -11 7 7 -7 26 -19 26 -6 0 -6 -6 2 -15z"/>
<path d="M5597 4299 c7 -7 15 -10 18 -7 3 3 -2 9 -12 12 -14 6 -15 5 -6 -5z"/>
<path d="M5805 4051 c-3 -5 -1 -12 5 -16 5 -3 10 -2 10 4 0 6 7 8 16 4 13 -5
13 -7 2 -14 -11 -8 7 -7 42 1 5 1 -59 30 -66 30 -1 0 -5 -4 -9 -9z"/>
<path d="M5960 3985 c0 -13 6 -16 21 -12 12 3 22 0 26 -9 3 -8 9 -14 15 -14 5
0 6 6 3 13 -4 6 1 3 9 -7 14 -18 16 -18 16 -3 0 17 -47 43 -58 32 -3 -2 -11 0
-19 6 -10 9 -13 7 -13 -6z"/>
<path d="M6066 3963 c-14 -15 -4 -32 26 -42 24 -9 33 -8 39 1 5 7 5 15 1 19
-16 12 -60 27 -66 22z"/>
<path d="M4085 3640 c3 -5 8 -10 11 -10 2 0 4 5 4 10 0 6 -5 10 -11 10 -5 0
-7 -4 -4 -10z"/>
<path d="M4410 3250 c0 -5 5 -10 10 -10 6 0 10 5 10 10 0 6 -4 10 -10 10 -5 0
-10 -4 -10 -10z"/>
<path d="M5095 2670 c10 -11 20 -20 23 -20 3 0 -3 9 -13 20 -10 11 -20 20 -23
20 -3 0 3 -9 13 -20z"/>
<path d="M4020 6496 c0 -2 7 -7 16 -10 8 -3 12 -2 9 4 -6 10 -25 14 -25 6z"/>
<path d="M3479 6412 c6 -12 16 -24 22 -28 8 -4 8 -1 0 14 -6 12 -16 24 -22 28
-8 4 -8 1 0 -14z"/>
<path d="M3454 6365 c4 -16 14 -37 22 -45 12 -12 12 -10 4 20 -13 45 -35 67
-26 25z"/>
<path d="M4161 6338 c-13 -37 -23 -84 -16 -76 9 8 35 98 29 98 -2 0 -8 -10
-13 -22z"/>
<path d="M3432 6330 c0 -14 2 -19 5 -12 2 6 2 18 0 25 -3 6 -5 1 -5 -13z"/>
<path d="M3597 6289 c7 -7 15 -10 18 -7 3 3 -2 9 -12 12 -14 6 -15 5 -6 -5z"/>
<path d="M4103 6274 c-12 -13 -18 -24 -13 -24 11 0 40 29 40 41 0 12 -1 11
-27 -17z"/>
<path d="M3981 6214 c0 -11 3 -14 6 -6 3 7 2 16 -1 19 -3 4 -6 -2 -5 -13z"/>
<path d="M3566 6145 c-10 -14 -16 -29 -13 -31 7 -8 39 35 35 47 -2 7 -12 0
-22 -16z"/>
<path d="M4410 5686 c0 -2 8 -10 18 -17 15 -13 16 -12 3 4 -13 16 -21 21 -21
13z"/>
<path d="M4450 5656 c0 -2 8 -10 18 -17 15 -13 16 -12 3 4 -13 16 -21 21 -21
13z"/>
<path d="M4400 5639 c0 -5 5 -7 10 -4 6 3 10 8 10 11 0 2 -4 4 -10 4 -5 0 -10
-5 -10 -11z"/>
<path d="M2581 5284 c0 -11 3 -14 6 -6 3 7 2 16 -1 19 -3 4 -6 -2 -5 -13z"/>
<path d="M2491 4993 c-58 -148 -85 -273 -60 -289 6 -4 9 1 7 13 -2 11 4 28 12
39 14 18 14 18 -4 4 -17 -14 -18 -13 -13 5 3 11 8 35 12 53 4 17 12 32 20 32
7 0 19 8 26 18 13 16 13 16 -6 2 -15 -11 -14 -7 5 15 40 49 43 51 31 28 -16
-32 -13 -43 4 -12 13 24 13 33 -1 73 -9 25 -17 46 -19 46 -1 0 -8 -12 -14 -27z"/>
<path d="M2495 4820 c10 -11 20 -20 23 -20 3 0 -3 9 -13 20 -10 11 -20 20 -23
20 -3 0 3 -9 13 -20z"/>
<path d="M5720 4730 c8 -5 20 -10 25 -10 6 0 3 5 -5 10 -8 5 -19 10 -25 10 -5
0 -3 -5 5 -10z"/>
<path d="M2457 4683 c-4 -3 -7 -11 -7 -17 0 -6 5 -5 12 2 6 6 9 14 7 17 -3 3
-9 2 -12 -2z"/>
<path d="M5555 4600 c3 -5 11 -10 16 -10 6 0 7 5 4 10 -3 6 -11 10 -16 10 -6
0 -7 -4 -4 -10z"/>
<path d="M5628 4573 c7 -3 16 -2 19 1 4 3 -2 6 -13 5 -11 0 -14 -3 -6 -6z"/>
<path d="M2470 4461 c0 -12 46 -41 65 -41 8 0 15 5 15 10 0 6 -11 10 -25 10
-14 0 -28 7 -31 15 -7 16 -24 21 -24 6z"/>
<path d="M6010 4409 c0 -5 4 -9 9 -9 5 0 17 -3 27 -7 11 -4 15 -3 11 4 -9 14
-47 24 -47 12z"/>
<path d="M6068 4407 c7 -8 9 -16 6 -19 -6 -7 169 -77 175 -71 3 2 -4 12 -15
23 -20 21 -124 63 -133 55 -2 -3 0 -5 5 -5 6 0 19 -7 30 -15 17 -14 15 -14
-13 0 -18 8 -33 19 -33 24 0 5 -7 12 -16 15 -13 5 -14 4 -6 -7z m117 -55 c-3
-3 -11 0 -18 7 -9 10 -8 11 6 5 10 -3 15 -9 12 -12z"/>
<path d="M6260 4340 c8 -5 22 -9 30 -9 10 0 8 3 -5 9 -27 12 -43 12 -25 0z"/>
<path d="M3210 4011 c0 -6 5 -11 10 -11 11 0 3 -45 -12 -70 -7 -11 -8 -7 -4
12 4 15 2 29 -3 32 -8 5 -3 -274 5 -283 10 -11 14 11 15 90 1 46 8 103 14 126
14 45 7 104 -13 111 -6 2 -12 -1 -12 -7z"/>
<path d="M3267 4003 c-4 -3 -7 -11 -7 -17 0 -6 5 -5 12 2 6 6 9 14 7 17 -3 3
-9 2 -12 -2z"/>
<path d="M5248 3903 c7 -3 16 -2 19 1 4 3 -2 6 -13 5 -11 0 -14 -3 -6 -6z"/>
<path d="M3172 3860 c0 -14 2 -19 5 -12 2 6 2 18 0 25 -3 6 -5 1 -5 -13z"/>
<path d="M3170 3757 c0 -42 5 -79 10 -82 10 -6 4 144 -6 154 -2 2 -4 -30 -4
-72z"/>
<path d="M3125 3659 c-4 -6 -5 -12 -2 -15 2 -3 7 2 10 11 7 17 1 20 -8 4z"/>
<path d="M3092 3300 c0 -14 2 -19 5 -12 2 6 2 18 0 25 -3 6 -5 1 -5 -13z"/>
<path d="M4937 2883 c-4 -3 -7 -11 -7 -17 0 -6 5 -5 12 2 6 6 9 14 7 17 -3 3
-9 2 -12 -2z"/>
<path d="M5210 2193 c0 -23 15 -39 24 -25 3 5 -1 18 -9 28 -14 18 -14 18 -15
-3z"/>
<path d="M5160 2111 c0 -6 5 -13 10 -16 6 -3 10 1 10 9 0 9 -4 16 -10 16 -5 0
-10 -4 -10 -9z"/>
<path d="M2970 2086 c-20 -26 -8 -61 23 -64 24 -3 27 0 27 25 0 27 -15 53 -31
53 -4 0 -12 -7 -19 -14z m33 -26 c-3 -11 -9 -20 -14 -20 -5 0 -9 9 -9 20 0 11
6 20 14 20 9 0 12 -7 9 -20z"/>
<path d="M2415 1067 c-15 -12 -16 -15 -4 -22 8 -5 11 -5 7 0 -4 4 0 14 10 21
23 18 11 18 -13 1z"/>
<path d="M2296 715 c-3 -8 -1 -15 4 -15 6 0 10 7 10 15 0 8 -2 15 -4 15 -2 0
-6 -7 -10 -15z"/>
<path d="M2400 296 c7 -7 13 -7 20 0 6 6 3 10 -10 10 -13 0 -16 -4 -10 -10z"/>
</g>
</svg>
