<?xml version="1.0" standalone="no"?>
<!DOCTYPE svg PUBLIC "-//W3C//DTD SVG 20010904//EN"
 "http://www.w3.org/TR/2001/REC-SVG-20010904/DTD/svg10.dtd">
<svg version="1.0" xmlns="http://www.w3.org/2000/svg"
 width="900.000000pt" height="675.000000pt" viewBox="0 0 900.000000 675.000000"
 preserveAspectRatio="xMidYMid meet">
<metadata>
Created by potrace 1.10, written by Peter Selinger 2001-2011
</metadata>
<g transform="translate(0.000000,675.000000) scale(0.100000,-0.100000)"
fill="#000000" stroke="none">
<path d="M3625 6740 c3 -5 -7 -15 -22 -21 -31 -12 -103 -47 -134 -65 -30 -17
-48 -46 -49 -78 0 -24 2 -27 15 -16 12 10 18 10 31 -1 16 -13 84 -149 84 -169
0 -13 -17 -13 -25 0 -3 6 -23 10 -43 10 -59 0 -82 10 -82 34 -1 20 -2 19 -25
-7 -25 -28 -30 -51 -19 -81 9 -24 21 -19 27 12 5 25 10 28 44 28 21 -1 45 -5
53 -11 8 -5 20 -10 25 -10 36 -3 66 -19 63 -34 -3 -12 -13 -15 -48 -13 -25 2
-46 8 -48 13 -2 5 -10 9 -18 9 -10 0 -14 -12 -14 -37 0 -31 7 -45 40 -76 22
-20 40 -43 40 -51 0 -7 7 -19 15 -26 8 -7 15 -23 15 -37 0 -19 -4 -23 -19 -18
-15 4 -20 0 -23 -17 -4 -32 -32 -34 -71 -4 -19 14 -37 26 -40 26 -4 0 -7 -20
-7 -44 0 -26 -6 -48 -15 -56 -23 -19 -19 -43 5 -35 14 5 20 2 20 -9 0 -9 -6
-16 -14 -16 -8 0 -32 -16 -53 -34 -28 -26 -40 -32 -50 -24 -9 7 -14 6 -19 -6
-8 -20 -24 -21 -24 -2 0 25 -23 23 -85 -9 -64 -33 -119 -78 -108 -88 3 -4 23
-4 45 -1 45 8 48 0 11 -30 -47 -36 -80 -47 -94 -29 -11 12 -10 17 4 24 9 6 17
16 17 23 0 18 -23 26 -41 15 -8 -5 -26 -7 -40 -4 -57 12 -196 -86 -235 -166
-52 -105 -77 -194 -63 -221 11 -21 9 -26 -41 -88 -56 -68 -81 -131 -91 -223
-11 -108 -37 -187 -66 -198 -12 -4 -24 -18 -27 -31 -4 -13 -12 -40 -18 -61
-15 -50 -5 -56 31 -15 27 30 30 31 37 14 5 -12 1 -30 -9 -48 -15 -26 -15 -28
4 -38 27 -15 24 -24 -16 -46 -30 -16 -35 -23 -35 -56 0 -20 -5 -48 -11 -62 -9
-19 -8 -29 5 -47 9 -13 19 -45 22 -71 5 -34 12 -49 25 -53 25 -8 24 -25 -1
-25 -11 0 -20 -4 -20 -10 0 -5 9 -10 19 -10 11 0 22 -9 26 -19 3 -11 15 -23
26 -26 12 -4 18 -12 15 -21 -3 -9 1 -14 12 -14 9 0 22 -10 27 -22 7 -16 20
-24 43 -26 18 -2 32 1 32 7 0 8 5 8 18 1 76 -44 158 -70 220 -70 64 0 187 23
224 41 31 16 40 11 33 -20 -5 -23 -2 -29 14 -34 13 -3 21 -13 21 -27 0 -13 7
-28 17 -35 23 -17 10 -49 -17 -40 -37 12 -35 -22 4 -65 41 -46 39 -40 26 -76
-10 -26 -11 -26 -24 -8 -12 15 -16 16 -30 5 -24 -20 -35 -75 -37 -191 -2 -58
-5 -109 -7 -113 -2 -5 -13 0 -23 9 -19 17 -20 17 -19 -12 1 -16 -2 -50 -6 -77
-5 -34 -3 -52 7 -65 28 -35 40 -64 31 -75 -15 -20 -71 -209 -77 -260 -4 -29
-12 -50 -21 -54 -13 -5 -14 -24 -8 -128 4 -79 3 -124 -4 -129 -6 -3 -12 16
-17 49 -3 30 -10 57 -15 60 -11 7 -16 -25 -29 -170 -6 -60 -17 -130 -26 -154
-8 -24 -15 -59 -15 -77 0 -32 1 -33 30 -27 27 5 30 3 30 -20 0 -14 -4 -28 -9
-32 -8 -4 -24 -103 -26 -150 0 -5 11 -10 25 -10 76 -3 73 -1 66 -47 -4 -24
-17 -61 -30 -84 -21 -37 -22 -44 -9 -68 8 -15 11 -35 7 -44 -4 -9 -7 -26 -8
-37 -2 -30 -38 -30 -66 0 -29 30 -34 31 -71 4 l-30 -21 7 29 c4 15 11 29 16
31 11 5 10 103 -1 121 -10 16 -31 6 -31 -14 0 -30 -42 -95 -61 -95 -10 0 -19
-4 -19 -9 0 -5 -8 -12 -17 -16 -10 -3 -33 -25 -51 -50 -21 -28 -43 -45 -59
-47 -18 -2 -33 -17 -54 -53 -43 -74 -44 -77 -26 -87 28 -15 -17 -84 -48 -72
-12 5 -14 0 -8 -26 5 -29 4 -32 -14 -26 -18 6 -21 1 -27 -40 -3 -26 -6 -90 -6
-143 0 -53 -5 -156 -11 -230 -9 -103 -9 -138 0 -153 10 -16 7 -23 -16 -47 -24
-24 -81 -157 -71 -166 2 -2 21 0 43 5 38 8 75 -1 75 -19 0 -4 -22 -25 -49 -47
-54 -43 -71 -70 -71 -114 0 -20 -5 -30 -15 -30 -9 0 -15 -9 -15 -25 0 -16 -6
-25 -15 -25 -24 0 -31 -31 -10 -46 17 -13 17 -14 1 -14 -27 0 -49 -65 -44
-130 4 -40 0 -63 -13 -86 -9 -17 -20 -57 -24 -88 -7 -51 -5 -60 15 -81 12 -13
35 -29 51 -35 18 -8 29 -20 29 -32 0 -10 6 -21 14 -24 8 -3 16 -14 19 -25 3
-11 14 -19 26 -19 12 0 21 -4 21 -10 0 -6 27 -10 62 -10 60 0 105 6 253 35 39
8 96 17 128 20 32 4 60 12 63 19 3 7 -3 39 -12 72 -9 32 -18 70 -22 84 -6 28
-38 60 -59 60 -7 0 -16 7 -19 15 -4 8 -12 15 -19 15 -24 0 -27 19 -10 54 18
38 17 102 -5 231 -7 39 -10 108 -7 155 4 79 8 92 57 185 51 97 84 150 152 245
49 68 53 76 109 190 74 153 109 244 109 282 0 9 6 29 14 45 8 15 23 46 33 68
21 46 38 62 73 71 77 20 152 165 105 204 -8 7 -15 22 -15 34 0 41 -12 67 -29
64 -9 -2 -15 -11 -15 -21 1 -11 -5 -17 -19 -17 -11 0 -26 -8 -33 -17 -12 -16
-13 -8 -8 50 6 64 6 68 -15 74 -11 3 -21 12 -21 20 0 13 3 13 15 3 12 -10 16
-8 25 15 9 23 7 30 -7 41 -15 10 -16 15 -5 26 11 11 15 10 23 -5 6 -9 19 -17
30 -17 20 0 44 -44 33 -61 -10 -17 7 -49 26 -49 11 0 23 -8 28 -17 9 -15 17
-12 65 28 60 49 121 125 142 179 4 8 12 29 19 45 7 17 20 56 30 88 38 134 51
173 61 187 22 30 63 127 91 218 16 51 16 66 1 186 -3 26 46 46 71 30 13 -8 20
-7 28 4 17 23 64 8 64 -22 0 -28 -9 -39 -24 -27 -6 4 -19 11 -29 14 -16 6 -17
2 -12 -31 12 -68 15 -73 35 -62 15 8 21 3 39 -30 12 -23 21 -50 21 -61 0 -18
11 -48 57 -149 30 -66 91 -145 155 -200 82 -72 144 -120 154 -120 14 0 94 -83
94 -97 0 -7 4 -13 9 -13 5 0 12 -11 15 -24 7 -28 65 -88 120 -125 l39 -25 -7
-75 c-3 -41 -10 -89 -15 -105 -6 -17 -20 -62 -32 -100 -16 -52 -22 -97 -23
-179 l-1 -109 39 -34 c21 -18 55 -42 75 -52 22 -12 43 -33 54 -56 19 -39 30
-42 80 -21 14 6 17 2 17 -19 0 -19 -10 -33 -40 -52 -22 -15 -40 -30 -40 -34 0
-4 25 -34 55 -66 30 -33 55 -67 55 -77 0 -17 6 -18 50 -12 44 6 50 5 50 -12
-1 -36 -68 -93 -110 -93 -19 0 -20 -4 -14 -37 9 -53 10 -53 57 -47 27 4 48 1
60 -8 16 -12 15 -17 -17 -69 -19 -31 -36 -65 -38 -75 -2 -11 -13 -20 -25 -22
-16 -2 -22 3 -25 20 -2 13 -10 23 -18 23 -12 0 -15 -15 -16 -70 0 -38 -4 -84
-8 -101 -7 -27 -5 -33 13 -39 26 -8 27 -25 2 -32 -14 -3 -20 -17 -24 -54 -3
-27 -14 -63 -23 -79 -17 -27 -17 -30 -1 -48 12 -13 15 -28 11 -48 -5 -26 -1
-32 35 -56 25 -16 48 -24 61 -21 12 3 32 0 44 -7 20 -10 28 -9 49 5 16 10 34
14 47 10 13 -4 36 1 59 13 21 11 47 22 57 23 31 5 64 -11 64 -31 0 -22 38 -47
99 -66 61 -18 186 -11 286 16 41 11 90 20 108 20 18 0 38 5 44 11 6 6 26 14
45 18 33 7 33 8 33 61 0 55 0 55 -38 67 -28 9 -50 10 -86 2 -58 -12 -188 -8
-181 6 3 6 34 10 68 10 50 1 66 5 73 18 6 10 22 17 39 17 17 0 30 4 30 9 0 12
-26 21 -60 21 -15 0 -33 7 -40 15 -8 9 -21 13 -35 9 -14 -3 -26 0 -32 8 -4 7
-30 29 -58 48 -27 19 -57 44 -66 55 -9 11 -36 39 -59 63 -39 40 -43 41 -56 25
-13 -17 -13 -17 -14 0 0 9 5 17 10 17 14 0 12 16 -3 32 -8 7 -17 25 -20 39 -9
34 -45 79 -63 79 -8 0 -14 5 -14 11 0 5 10 9 23 7 l22 -3 0 481 c0 340 -3 485
-11 495 -6 8 -14 30 -18 50 -4 21 -13 42 -21 49 -8 7 -15 19 -15 27 0 8 -9 26
-19 39 -19 24 -20 25 -30 5 -6 -11 -11 -31 -11 -46 0 -25 0 -25 -30 -10 -35
18 -37 26 -10 50 11 10 20 28 20 41 0 13 18 40 43 66 50 50 64 89 65 175 1 59
-1 64 -31 88 -32 25 -32 25 -49 5 -10 -13 -28 -20 -51 -20 -35 0 -36 1 -42 47
-3 27 -10 56 -16 65 -13 25 -11 45 6 52 18 6 9 36 -11 36 -8 0 -14 -7 -14 -15
0 -8 -7 -15 -15 -15 -19 0 -19 16 0 24 11 4 15 21 15 61 0 54 -1 55 -25 49
-19 -5 -25 -2 -25 9 0 9 -11 29 -25 44 -24 27 -26 27 -40 9 -12 -16 -17 -17
-30 -6 -8 7 -15 21 -15 32 0 24 26 75 41 80 8 3 8 25 0 83 -13 94 -54 183
-135 295 -29 41 -73 113 -97 160 -24 47 -60 113 -81 148 -21 34 -38 65 -38 69
0 3 -7 14 -16 24 -28 30 -8 39 91 39 105 0 188 14 210 37 8 8 15 28 15 44 l0
29 88 0 c85 0 141 -15 157 -41 10 -15 23 -10 30 11 5 15 15 20 41 20 38 0 54
-21 34 -45 -9 -11 -8 -19 7 -39 10 -14 26 -26 35 -26 9 0 20 -9 23 -20 3 -11
11 -20 16 -20 5 0 9 -10 9 -23 0 -39 23 -60 57 -55 22 3 30 1 26 -8 -7 -19 34
-54 63 -54 14 0 32 -7 40 -15 9 -9 34 -15 62 -15 26 0 55 -7 65 -15 25 -18
154 -30 189 -16 15 5 34 25 43 45 25 52 38 60 82 48 47 -13 102 -32 125 -43 9
-5 31 -6 47 -3 17 4 38 3 48 -1 45 -20 181 -67 204 -72 53 -10 82 84 51 162
-7 17 -14 35 -16 40 -2 6 -16 16 -32 24 -16 7 -41 20 -56 27 -14 8 -32 14 -40
14 -16 0 -28 11 -103 91 -34 37 -58 54 -75 54 -15 0 -26 6 -28 18 -3 14 4 17
32 17 19 0 37 -4 40 -9 4 -5 25 -12 48 -16 24 -4 52 -14 64 -21 18 -13 23 -12
34 1 7 8 21 15 31 15 23 0 51 62 43 96 -5 21 -3 24 20 24 14 0 40 -6 58 -14
18 -8 58 -24 88 -36 30 -13 57 -25 60 -29 9 -11 81 -41 100 -41 10 0 40 -11
67 -24 126 -62 122 -61 143 -40 25 25 14 87 -15 92 -11 2 -33 9 -50 16 -41 18
-89 35 -157 55 -32 9 -63 22 -70 29 -6 6 -21 12 -31 12 -10 0 -31 6 -45 13
-71 36 -100 47 -131 51 -18 1 -38 10 -42 19 -5 9 -22 29 -37 44 -15 16 -32 38
-38 48 -10 17 -22 20 -90 20 -43 0 -88 5 -99 12 -30 17 -92 43 -103 43 -5 0
-15 7 -22 15 -7 8 -24 15 -39 15 -14 0 -35 7 -45 15 -11 8 -26 15 -35 15 -8 0
-23 7 -33 17 -10 9 -35 17 -56 19 -53 3 -52 3 -52 17 0 9 -12 14 -31 14 -19 0
-35 6 -41 16 -5 10 -21 17 -39 17 -17 0 -32 6 -35 15 -4 9 -19 15 -35 15 -17
0 -32 6 -35 15 -5 12 -15 14 -39 9 -27 -5 -36 -2 -47 15 -7 12 -20 21 -29 21
-9 0 -22 7 -29 15 -7 8 -20 15 -30 15 -10 0 -23 6 -29 14 -16 19 13 66 40 66
11 0 19 4 19 9 0 13 -27 21 -74 21 -24 0 -57 7 -75 16 -18 9 -42 13 -54 10
-12 -3 -40 4 -65 16 -35 18 -47 20 -62 10 -28 -17 -48 -15 -24 3 16 13 17 16
4 25 -21 13 -53 12 -70 -2 -12 -11 -12 -10 -1 4 10 14 9 18 -8 27 -11 6 -27
11 -35 11 -8 0 -20 9 -26 20 -7 12 -21 20 -37 20 -21 0 -24 3 -15 12 20 20 15
26 -40 52 -40 19 -54 32 -63 60 -11 31 -10 36 5 41 10 3 33 -1 51 -9 19 -8 54
-22 79 -31 25 -10 60 -24 77 -31 18 -8 48 -20 65 -28 18 -7 53 -21 78 -31 25
-10 60 -24 77 -32 18 -7 48 -20 68 -29 19 -8 52 -22 72 -31 21 -9 54 -23 73
-31 19 -8 47 -21 62 -29 14 -7 33 -13 41 -13 8 0 20 -7 27 -15 7 -8 23 -15 35
-15 13 0 25 -7 29 -15 3 -8 17 -15 31 -15 15 0 33 -7 41 -15 9 -8 24 -15 33
-15 10 0 24 -7 31 -15 7 -8 19 -15 27 -15 17 0 108 -40 208 -91 57 -29 71 -41
73 -63 2 -18 -1 -26 -12 -26 -9 0 -16 5 -16 10 0 6 -18 10 -40 10 -22 0 -40
-4 -40 -10 0 -5 11 -10 24 -10 14 0 31 -6 38 -14 8 -7 29 -17 46 -21 18 -3 32
-11 32 -16 0 -5 11 -9 24 -9 14 0 31 -7 40 -15 8 -8 21 -15 28 -15 7 0 30 -9
51 -20 20 -11 44 -20 52 -20 8 0 15 -4 15 -10 0 -5 5 -10 10 -10 22 0 8 35
-30 72 -38 38 -60 88 -60 135 0 13 -9 28 -20 35 -11 7 -20 20 -20 30 0 29 -14
27 -50 -8 -19 -19 -38 -34 -43 -34 -6 0 -31 13 -57 29 -46 29 -206 101 -222
101 -9 0 -90 34 -118 49 -9 5 -30 12 -48 16 -18 3 -32 10 -32 15 0 5 -10 12
-22 16 -31 9 -134 56 -245 110 -57 28 -94 53 -98 65 -4 10 -12 19 -20 19 -19
0 -183 75 -212 96 -24 19 -24 20 -9 56 9 20 20 39 26 43 12 7 14 105 2 105 -4
0 -12 10 -17 23 -6 12 -19 22 -30 23 -11 0 -30 5 -42 12 -12 7 -28 12 -37 12
-8 0 -29 8 -48 17 -18 9 -45 22 -60 30 -14 7 -33 13 -41 13 -9 0 -25 12 -36
28 -12 15 -25 32 -31 39 -5 7 -10 16 -10 21 0 38 -187 129 -213 103 -18 -18
-40 -12 -82 23 -37 32 -39 36 -27 57 12 19 11 25 -5 46 -20 26 -47 43 -165 98
-42 19 -79 42 -82 51 -11 29 -7 104 7 104 15 0 57 44 57 59 0 6 -7 14 -15 17
-8 4 -15 15 -15 25 0 34 -28 32 -72 -3 -73 -57 -79 -66 -76 -105 2 -30 8 -38
33 -46 39 -13 40 -14 25 -32 -17 -20 -23 -19 -59 12 -24 21 -31 36 -31 64 0
21 5 39 11 41 9 3 9 10 0 27 -16 28 1 53 21 33 10 -10 15 -3 25 30 12 42 12
43 -22 78 -28 29 -35 44 -35 76 0 22 -5 45 -12 52 -20 20 -3 23 35 7 42 -17
44 -22 20 -41 -17 -13 -13 -18 37 -63 52 -46 78 -56 66 -25 -3 7 6 33 19 56
14 24 25 54 25 66 0 15 7 26 20 29 19 5 21 13 24 70 1 14 -17 17 -148 20 -191
6 -226 18 -75 26 63 4 139 10 169 14 47 6 51 8 25 13 -27 5 -30 9 -27 39 1 18
11 52 22 76 21 46 24 66 14 103 -8 30 -148 122 -186 122 -17 0 -33 8 -40 20
-11 17 -24 20 -91 20 -49 0 -76 -4 -72 -10z m183 -86 c33 -26 42 -51 20 -59
-7 -2 -68 -6 -135 -9 -111 -4 -123 -3 -123 12 1 28 25 52 53 52 13 0 27 6 30
14 13 33 105 27 155 -10z m-98 -555 c0 -6 -13 -24 -30 -39 -16 -15 -30 -37
-30 -49 0 -23 -11 -26 -38 -12 -9 5 -25 12 -34 15 -30 9 -20 33 15 40 19 3 43
17 55 31 22 25 62 34 62 14z m113 -56 c8 -7 -21 -43 -35 -43 -4 0 -8 11 -8 25
0 18 5 25 18 25 10 0 22 -3 25 -7z m-303 -32 c0 -12 -59 -71 -71 -71 -17 0 -9
24 18 52 26 27 53 37 53 19z m450 -85 c0 -14 -29 -31 -38 -21 -6 6 18 35 29
35 5 0 9 -6 9 -14z m-750 -125 c0 -6 -5 -13 -10 -16 -15 -9 -71 5 -64 16 7 12
74 12 74 0z m98 -33 c3 -15 -4 -18 -42 -18 -33 0 -46 4 -46 14 0 29 83 32 88
4z m-124 -28 c37 -14 32 -28 -10 -28 -20 0 -40 -6 -45 -13 -4 -7 -11 -10 -16
-6 -4 5 -3 11 3 15 6 4 13 15 17 25 7 20 16 21 51 7z m136 -60 c0 -11 -39 -24
-47 -16 -10 10 18 35 33 29 8 -3 14 -9 14 -13z m484 -101 c-7 -12 -54 -12 -54
0 0 11 30 19 47 13 7 -2 10 -8 7 -13z m188 -9 c32 0 67 -23 77 -51 5 -15 19
-33 30 -39 26 -13 19 -30 -13 -30 -12 0 -27 -5 -34 -12 -9 -9 -12 -9 -12 3 0
9 -10 24 -21 35 -26 23 -69 89 -69 106 0 9 3 9 12 0 7 -7 20 -12 30 -12z
m-398 -36 c13 -5 14 -9 5 -20 -15 -18 -59 -18 -59 -1 0 26 21 34 54 21z m318
-25 c17 -9 18 -13 7 -20 -16 -10 -73 -12 -82 -2 -11 10 13 33 35 33 11 0 29
-5 40 -11z m-392 -9 c0 -5 -9 -10 -21 -10 -11 0 -17 5 -14 10 3 6 13 10 21 10
8 0 14 -4 14 -10z m270 -54 c0 -20 -16 -29 -40 -21 -32 10 -25 35 10 35 19 0
30 -5 30 -14z m400 -6 c0 -5 -9 -10 -20 -10 -11 0 -20 5 -20 10 0 6 9 10 20
10 11 0 20 -4 20 -10z m-487 -35 c-5 -25 -112 -22 -121 3 -3 10 11 12 59 10
36 -2 63 -7 62 -13z m347 -25 c13 -8 12 -10 -2 -10 -11 0 -18 -8 -18 -19 0
-25 17 -36 34 -22 11 9 17 4 30 -23 9 -19 19 -48 22 -65 4 -17 11 -34 15 -37
5 -3 9 -16 9 -30 0 -26 -13 -30 -53 -15 -44 17 -57 39 -57 97 0 61 -21 75 -38
27 l-10 -28 -1 28 c-1 15 3 27 7 27 5 0 14 18 21 40 12 42 17 46 41 30z m386
-47 c-11 -11 -19 6 -11 24 8 17 8 17 12 0 3 -10 2 -21 -1 -24z m-118 -19 c18
-8 32 -22 32 -30 0 -16 -26 -19 -35 -3 -4 5 -18 14 -32 20 -13 5 -21 13 -18
19 8 14 17 13 53 -6z m-1614 -40 c9 -22 8 -24 -9 -24 -8 0 -15 9 -15 20 0 24
15 27 24 4z m866 -44 c29 -7 24 -8 -32 -9 -54 -1 -68 2 -68 14 0 15 12 14 100
-5z m138 -7 c2 -9 -8 -13 -32 -13 -36 0 -56 14 -34 24 22 8 61 2 66 -11z
m-1038 -72 c14 -27 13 -67 -4 -83 -7 -8 -17 -24 -20 -36 -4 -12 -11 -22 -16
-22 -11 0 -23 37 -15 50 3 5 0 19 -7 30 -9 15 -10 23 -2 28 6 4 16 17 23 30
14 27 27 28 41 3z m130 -22 c0 -11 -4 -17 -10 -14 -5 3 -10 15 -10 26 0 11 5
17 10 14 6 -3 10 -15 10 -26z m100 -19 c0 -11 -30 -34 -36 -27 -12 11 7 46 22
40 7 -3 14 -9 14 -13z m1233 -65 c15 -8 43 -17 62 -21 39 -7 46 -21 13 -26
-14 -2 -24 -12 -28 -27 -7 -30 -23 -37 -40 -16 -7 8 -27 15 -44 15 -35 0 -93
41 -82 58 4 7 19 9 35 6 20 -4 30 -1 34 10 8 20 14 20 50 1z m310 -22 c16 -9
7 -43 -13 -43 -11 0 -20 5 -20 10 0 6 -6 10 -14 10 -18 0 -29 16 -21 30 5 9
47 5 68 -7z m-1853 -2 c0 -14 -18 -23 -30 -16 -6 4 -8 11 -5 16 8 12 35 12 35
0z m1700 -40 c0 -13 -69 -65 -76 -58 -11 11 37 67 57 67 10 0 19 -4 19 -9z
m80 -28 c0 -16 -16 -30 -37 -35 -25 -7 -31 10 -11 30 13 13 48 16 48 5z
m-1572 -25 c-5 -32 -28 -35 -28 -4 0 17 5 26 16 26 10 0 14 -7 12 -22z m1656
-7 c7 -11 -11 -26 -41 -35 -17 -6 -23 -3 -23 8 0 25 52 47 64 27z m48 -26 c0
-5 -5 -11 -11 -13 -6 -2 -11 4 -11 13 0 9 5 15 11 13 6 -2 11 -8 11 -13z
m-1140 -34 c13 -11 40 -21 59 -24 l34 -4 -36 -1 c-20 -1 -52 -8 -70 -16 -19
-7 -40 -11 -46 -9 -14 5 -18 55 -6 66 12 13 40 7 65 -12z m-812 -51 c0 -21
-16 -26 -39 -11 -11 7 -10 11 5 20 27 15 34 14 34 -9z m646 -87 c9 -20 13 -49
10 -64 -4 -20 0 -31 17 -43 19 -13 20 -17 7 -26 -8 -5 -35 -9 -60 -8 -37 3
-48 8 -66 35 -21 31 -21 35 -7 75 19 55 30 68 60 68 18 0 28 -9 39 -37z m-663
3 c7 -19 -18 -42 -28 -26 -8 13 1 40 14 40 5 0 11 -6 14 -14z m-3 -75 c0 -21
-39 -46 -52 -33 -14 14 19 62 38 55 8 -3 14 -13 14 -22z m2460 11 c0 -13 -12
-22 -22 -16 -10 6 -1 24 13 24 5 0 9 -4 9 -8z m105 -42 c-3 -5 -19 -10 -36
-10 -16 0 -29 5 -29 10 0 6 16 10 36 10 21 0 33 -4 29 -10z m75 -25 c0 -16
-45 -21 -54 -6 -8 12 4 21 31 21 14 0 23 -6 23 -15z m-1235 -45 c0 -20 -6 -26
-27 -28 -24 -3 -28 0 -28 21 0 30 9 39 35 35 14 -2 20 -10 20 -28z m-205 0 c0
-6 27 -23 60 -38 47 -21 60 -31 58 -47 -5 -32 -58 -41 -137 -22 -72 18 -137
21 -190 11 -40 -8 -35 -29 8 -29 21 0 38 -7 49 -22 15 -19 25 -22 77 -19 33 2
68 6 77 11 18 7 108 -30 108 -45 0 -5 10 -12 23 -16 31 -10 66 -37 67 -51 0
-20 -24 -15 -56 10 -23 17 -40 22 -83 20 -30 -1 -61 3 -68 8 -7 6 -45 15 -84
20 -52 6 -81 16 -105 34 -19 15 -35 21 -39 15 -15 -25 -25 -5 -25 49 0 55 2
61 31 82 34 24 99 31 106 12 3 -7 -2 -13 -11 -13 -9 0 -16 -4 -16 -9 0 -20 18
-20 43 -1 14 11 34 20 45 20 11 0 25 7 32 15 14 17 30 20 30 5z m397 -57 c-33
-18 -37 -16 -37 20 0 47 11 53 37 20 l22 -28 -22 -12z m-1423 12 c-19 -29 -52
-41 -67 -26 -8 8 -7 11 5 11 9 0 23 6 30 13 11 11 28 21 46 26 1 1 -5 -10 -14
-24z m70 9 c15 -6 23 -34 10 -34 -13 0 -44 21 -44 30 0 11 11 13 34 4z m1164
-81 c4 -27 -14 -30 -46 -7 -28 19 -19 36 16 32 19 -2 28 -10 30 -25z m1062
-116 c47 -18 89 -36 123 -53 16 -8 36 -14 45 -14 9 0 26 -7 36 -15 11 -8 28
-15 38 -15 10 0 24 -12 30 -26 10 -21 9 -27 -3 -35 -29 -15 -11 -119 20 -119
10 0 21 -3 24 -6 10 -10 120 -54 135 -54 7 0 15 -7 18 -15 4 -8 18 -15 33 -15
14 -1 37 -7 51 -15 14 -8 35 -14 46 -15 12 0 27 -6 34 -14 6 -8 21 -16 32 -18
12 -2 23 -9 26 -15 5 -18 -49 -17 -84 2 -16 8 -36 15 -45 15 -9 0 -22 7 -29
15 -7 8 -19 15 -28 15 -35 0 -164 54 -240 100 -32 19 -32 22 -26 69 7 54 -4
69 -35 49 -16 -10 -23 -9 -39 5 -13 12 -36 17 -75 17 -51 0 -58 2 -71 28 -8
15 -26 38 -40 51 -18 17 -26 35 -26 58 0 37 1 38 50 20z m-664 -33 c32 -8 41
-46 19 -80 -12 -19 -13 -29 -5 -39 14 -17 9 -315 -5 -316 -5 -1 -18 9 -27 22
-13 19 -17 54 -20 177 -4 141 -3 152 14 152 19 0 25 25 9 35 -6 3 -17 19 -25
36 -14 28 -14 30 0 25 9 -3 27 -9 40 -12z m-512 -100 c9 -3 16 -14 16 -25 0
-17 -1 -17 -30 -1 -16 9 -30 20 -30 25 0 9 22 9 44 1z m1702 -13 c-3 -5 -15
-7 -26 -4 -28 7 -25 13 6 13 14 0 23 -4 20 -9z m-2336 -27 c0 -8 -4 -14 -10
-14 -5 0 -10 9 -10 21 0 11 5 17 10 14 6 -3 10 -13 10 -21z m2400 6 c12 -8 9
-10 -13 -10 -16 0 -26 4 -22 10 8 12 16 12 35 0z m-230 -43 c25 -12 59 -32 77
-44 17 -13 37 -23 45 -23 7 0 30 -9 51 -20 20 -11 46 -20 57 -20 11 0 20 -5
20 -11 0 -21 -127 17 -157 46 -8 8 -25 15 -38 15 -12 0 -36 7 -51 15 -16 8
-36 15 -45 15 -18 0 -33 26 -23 41 7 13 13 11 64 -14z m-2140 -23 c0 -14 -12
-19 -23 -8 -9 9 4 35 14 28 5 -3 9 -12 9 -20z m22 -66 c-13 -13 -24 5 -16 27
7 16 8 16 17 0 6 -11 6 -20 -1 -27z m2444 -63 c16 -8 37 -15 47 -15 9 0 17 -4
17 -10 0 -5 -17 -10 -39 -10 -27 0 -46 7 -65 25 -24 22 -25 25 -8 25 11 0 33
-7 48 -15z m154 -60 c14 -8 35 -14 48 -15 13 0 22 -6 22 -15 0 -24 -29 -30
-60 -11 -16 9 -38 16 -49 16 -12 0 -21 2 -21 4 0 2 -3 11 -6 20 -8 21 31 21
66 1z m-402 -63 c4 -27 20 -28 38 -4 11 15 14 15 27 2 8 -8 18 -36 21 -62 6
-40 5 -48 -8 -48 -10 0 -16 9 -16 25 0 16 -6 26 -17 27 -10 1 -25 2 -33 4 -8
1 -20 2 -25 3 -21 2 -36 40 -25 62 14 25 34 20 38 -9z m-2259 -44 c0 -13 -6
-63 -12 -113 -9 -68 -16 -90 -27 -90 -13 0 -14 17 -11 105 2 58 5 108 8 113 2
4 13 7 24 7 13 0 19 -7 18 -22z m2631 -7 c3 -4 22 -11 43 -15 20 -4 37 -11 37
-16 0 -16 -56 -11 -70 5 -7 8 -27 15 -46 15 -33 0 -50 11 -36 24 8 9 64 -1 72
-13z m-1573 -17 c8 -21 -13 -42 -28 -27 -13 13 -5 43 11 43 6 0 13 -7 17 -16z
m-57 -34 c0 -12 7 -20 16 -20 9 0 14 -5 12 -12 -6 -18 -28 -22 -28 -5 0 9 -9
19 -20 22 -20 6 -25 16 -13 28 13 14 33 6 33 -13z m1778 0 c6 0 12 -4 12 -10
0 -11 -30 -13 -54 -4 -25 9 -19 27 7 20 12 -3 28 -6 35 -6z m-1838 -56 c0 -32
4 -44 15 -44 8 0 15 9 15 20 0 11 7 20 15 20 15 0 10 -29 -8 -41 -5 -4 -12
-27 -14 -53 -6 -50 -19 -59 -32 -23 -9 22 -9 22 -16 -5 -6 -23 -62 -78 -79
-78 -12 0 -46 45 -46 61 0 24 -20 35 -32 18 -7 -11 -11 -10 -21 5 -7 11 -31
40 -54 65 -24 25 -43 49 -43 53 0 13 37 9 49 -6 7 -8 23 -17 36 -20 14 -4 25
-11 25 -16 0 -6 9 -10 20 -10 23 0 28 38 8 58 -15 15 -2 28 14 14 9 -7 20 -6
38 3 35 20 37 19 43 -21 3 -20 17 -46 32 -59 27 -26 34 -12 9 20 -13 18 -12
63 3 88 11 18 23 -8 23 -49z m1898 30 c12 -4 22 -11 22 -16 0 -14 -53 -5 -58
10 -4 13 2 15 36 6z m77 -33 c3 -5 1 -13 -5 -16 -15 -9 -43 3 -35 15 8 13 32
13 40 1z m69 -27 c22 -9 20 -24 -3 -24 -21 0 -34 13 -24 24 8 7 8 7 27 0z
m-3064 -175 c0 -20 -4 -29 -12 -27 -15 5 -22 33 -14 54 9 24 26 6 26 -27z
m1152 -21 c-7 -7 -12 -25 -12 -41 0 -16 -4 -26 -10 -22 -22 14 -3 74 25 75 5
0 4 -5 -3 -12z m138 -122 c0 -3 -7 -6 -15 -6 -8 0 -15 7 -15 15 0 8 -4 15 -10
15 -5 0 -10 9 -10 21 0 18 3 17 25 -9 14 -17 25 -33 25 -36z m-1200 -80 c0 -8
-4 -17 -9 -21 -12 -7 -24 12 -16 25 9 15 25 12 25 -4z m1115 -65 c-2 -1 -8 0
-14 4 -13 7 -14 35 -4 62 6 14 9 8 14 -22 4 -22 5 -42 4 -44z m-1175 35 c0 -8
-4 -18 -10 -21 -5 -3 -10 3 -10 14 0 12 5 21 10 21 6 0 10 -6 10 -14z m1203
-134 c4 -30 2 -42 -6 -39 -7 2 -13 26 -15 53 -4 60 13 49 21 -14z m494 -389
c-3 -10 -5 -2 -5 17 0 19 2 27 5 18 2 -10 2 -26 0 -35z m-159 -320 c5 -16 13
-36 17 -45 10 -24 -15 -23 -42 1 -14 13 -19 28 -16 45 7 34 28 33 41 -1z m392
-83 c12 -8 11 -10 -7 -10 -13 0 -23 5 -23 10 0 13 11 13 30 0z m-1990 -65 c0
-36 -13 -47 -24 -19 -11 28 -6 54 9 54 10 0 15 -11 15 -35z m95 -83 c7 -35 -6
-62 -32 -62 -12 0 -13 6 -7 28 4 15 9 41 10 57 1 17 3 32 4 35 2 11 18 -27 25
-58z m1645 -1461 c0 -11 -4 -23 -10 -26 -6 -4 -10 5 -10 19 0 14 5 26 10 26 6
0 10 -9 10 -19z m-2520 -203 c0 -7 -5 -20 -10 -28 -8 -12 -10 -9 -10 13 0 15
5 27 10 27 6 0 10 -6 10 -12z m2947 -21 c3 -4 -19 -7 -50 -7 -31 0 -57 4 -57
9 0 11 96 8 107 -2z m-2957 -72 c0 -30 23 -63 49 -68 14 -3 42 -10 62 -15 30
-8 38 -6 47 9 15 23 38 16 75 -23 23 -25 30 -28 43 -18 19 17 30 5 14 -15 -12
-14 -6 -16 51 -15 35 1 81 -5 102 -13 l38 -14 -38 -11 c-21 -6 -63 -13 -93
-16 -30 -3 -65 -8 -77 -12 -19 -5 -23 -2 -23 15 0 24 -3 25 -29 10 -25 -16
-86 -3 -111 23 -17 18 -23 20 -45 10 -14 -6 -38 -9 -55 -6 -21 5 -30 3 -30 -6
0 -13 -28 -39 -42 -40 -5 0 -8 11 -8 25 0 18 7 26 25 31 30 7 25 18 -8 19 -18
0 -22 6 -22 35 0 29 4 36 23 38 18 3 21 6 12 17 -16 20 -3 55 21 55 10 0 19
-7 19 -15z m50 -194 c0 -13 -27 -21 -46 -14 -13 5 -13 7 -2 14 17 11 48 11 48
0z"/>
<path d="M4003 6050 c-26 -21 -29 -35 -10 -47 8 -4 18 -16 24 -27 8 -15 11
-10 17 30 7 57 -1 69 -31 44z"/>
<path d="M5283 4603 c-7 -3 -13 -11 -13 -19 0 -8 -8 -14 -17 -14 -14 0 -14 -3
5 -20 12 -11 27 -20 34 -20 8 1 5 7 -7 16 -17 13 -18 16 -5 24 8 5 23 10 33
10 9 0 17 4 17 9 0 11 -30 19 -47 14z"/>
<path d="M5350 4560 c0 -5 15 -16 34 -25 19 -9 37 -23 40 -31 3 -8 16 -14 28
-14 13 -1 34 -7 48 -15 29 -16 120 -20 120 -5 0 6 -7 10 -16 10 -9 0 -28 6
-42 13 -58 29 -98 47 -125 53 -15 3 -30 10 -33 15 -7 12 -54 12 -54 -1z"/>
<path d="M5650 4440 c0 -5 11 -10 25 -10 14 0 25 5 25 10 0 6 -11 10 -25 10
-14 0 -25 -4 -25 -10z"/>
<path d="M5720 4410 c0 -5 14 -10 31 -10 17 0 28 4 24 10 -3 6 -17 10 -31 10
-13 0 -24 -4 -24 -10z"/>
<path d="M2825 2260 c-8 -13 20 -24 41 -16 20 8 9 26 -16 26 -10 0 -22 -5 -25
-10z"/>
</g>
</svg>
